<svg width="617" height="563" viewBox="0 0 617 563" fill="none" xmlns="http://www.w3.org/2000/svg">
<path fill-rule="evenodd" clip-rule="evenodd" d="M0 30C0 13.4315 13.4315 0 30 0H421.901V0.00100658C529.708 0.270646 617 72.0253 617 160.5C617 208.778 591.009 252.077 549.876 281.5C591.009 310.923 617 354.222 617 402.5C617 490.975 529.708 562.729 421.901 562.999V563H421.291H30C13.4314 563 0 549.568 0 533V321V242V30Z" fill="#F76902"/>
<path fill-rule="evenodd" clip-rule="evenodd" d="M0 30C0 13.4315 13.4315 0 30 0H346V0.000979305C434.412 0.270593 506 72.0252 506 160.5C506 208.778 484.685 252.077 450.952 281.5C484.685 310.923 506 354.222 506 402.5C506 490.975 434.412 562.729 346 562.999V563H345.5H173.5V348.721L240.135 416.131C239.392 419.469 239 422.939 239 426.5C239 452.734 260.266 474 286.5 474C312.734 474 334 452.734 334 426.5C334 400.267 312.734 379 286.5 379C284.233 379 282.004 379.159 279.822 379.466L165.702 264.019C158.005 256.233 146.367 253.865 136.24 258.026C126.112 262.187 119.5 272.052 119.5 283.001V563H30C13.4315 563 0 549.568 0 533V321V242V30ZM119.5 563H173.5V563.001H119.5V563ZM54.8164 0.000366211L239.487 184.671C239.166 186.901 239 189.181 239 191.5C239 217.734 260.266 239 286.5 239C312.734 239 334 217.734 334 191.5C334 165.267 312.734 144 286.5 144C282.993 144 279.575 144.38 276.285 145.101L131.184 0.000366211H54.8164Z" fill="#6C0164"/>
</svg>
