<svg width="605" height="690" viewBox="0 0 605 690" fill="none" xmlns="http://www.w3.org/2000/svg">
<path fill-rule="evenodd" clip-rule="evenodd" d="M6.44826 28.7563C6.44826 13.0287 19.1979 0.279053 34.9255 0.279053H406.934V0.279804C509.269 0.535193 592.131 68.6478 592.131 152.632C592.131 198.459 567.459 239.561 528.414 267.49C567.459 295.42 592.131 336.521 592.131 382.348C592.131 466.332 509.269 534.445 406.934 534.7V534.701H34.9255C19.1979 534.701 6.44824 521.952 6.44824 506.224V229.995L6.44826 28.7563Z" fill="#F76902"/>
<path fill-rule="evenodd" clip-rule="evenodd" d="M6.44826 28.7563C6.44826 13.0287 19.1979 0.279053 34.9255 0.279053H334.885V0.279806C418.81 0.535531 486.764 68.648 486.764 152.632C486.764 198.459 466.531 239.561 434.51 267.49C466.531 295.42 486.764 336.521 486.764 382.348C486.764 466.332 418.81 534.445 334.885 534.7V534.701H171.14V331.299L234.393 395.288C233.688 398.456 233.316 401.75 233.316 405.13C233.316 430.032 253.503 450.219 278.405 450.219C303.307 450.219 323.494 430.032 323.494 405.13C323.494 380.228 303.307 360.041 278.405 360.041C276.253 360.041 274.136 360.192 272.065 360.484L163.738 250.897C156.432 243.506 145.385 241.258 135.771 245.208C126.158 249.157 119.881 258.522 119.881 268.915V534.701H34.9254C19.1979 534.701 6.44824 521.952 6.44824 506.224V229.995L6.44826 28.7563ZM119.881 534.701H171.14V534.702H119.881V534.701ZM58.4831 0.280039L233.779 175.575C233.474 177.693 233.316 179.858 233.316 182.059C233.316 206.961 253.503 227.148 278.405 227.148C303.307 227.148 323.494 206.961 323.494 182.059C323.494 157.157 303.307 136.97 278.405 136.97C275.077 136.97 271.832 137.331 268.71 138.015L130.974 0.280039H58.4831Z" fill="#6C0164"/>
<path d="M8.23031 592.766H32.5844C39.4102 592.766 44.6123 594.423 48.1909 597.737C51.8357 601.05 53.6581 605.556 53.6581 611.256C53.6581 615.232 52.6641 618.413 50.676 620.798C48.7542 623.118 45.9709 624.808 42.326 625.868V626.464C46.6336 627.525 49.947 629.38 52.2665 632.031C54.6522 634.682 55.845 638.36 55.845 643.065C55.845 648.897 53.9895 653.536 50.2784 656.982C46.6336 660.428 41.4977 662.151 34.8707 662.151H8.23031V592.766ZM30.2981 651.713C33.8767 651.713 36.4943 651.117 38.1511 649.924C39.8078 648.731 40.6362 646.544 40.6362 643.363V640.48C40.6362 637.3 39.8078 635.113 38.1511 633.92C36.4943 632.727 33.8767 632.13 30.2981 632.13H22.7434V651.713H30.2981ZM28.4094 622.19C31.9217 622.19 34.4731 621.627 36.0636 620.5C37.654 619.307 38.4493 617.187 38.4493 614.138V611.156C38.4493 608.108 37.654 606.02 36.0636 604.894C34.4731 603.767 31.9217 603.204 28.4094 603.204H22.7434V622.19H28.4094ZM88.2121 604.297C84.8986 604.297 82.5791 603.635 81.2538 602.309C79.9946 600.917 79.3651 599.261 79.3651 597.339V594.456C79.3651 592.468 79.9946 590.811 81.2538 589.486C82.5791 588.161 84.8986 587.498 88.2121 587.498C91.5255 587.498 93.8118 588.161 95.071 589.486C96.3964 590.811 97.0591 592.468 97.0591 594.456V597.339C97.0591 599.261 96.3964 600.917 95.071 602.309C93.8118 603.635 91.5255 604.297 88.2121 604.297ZM64.5538 650.719H80.8561V622.289H64.5538V610.858H95.568V650.719H110.677V662.151H64.5538V650.719ZM143.641 662.151C138.339 662.151 134.396 660.759 131.812 657.976C129.227 655.192 127.935 651.647 127.935 647.339V622.289H114.018V610.858H123.064C125.251 610.858 126.808 610.427 127.736 609.566C128.664 608.704 129.128 607.114 129.128 604.794V592.766H142.647V610.858H162.627V622.289H142.647V650.719H162.627V662.151H143.641ZM193.702 663.343C188.003 663.343 183.033 662.482 178.791 660.759C174.616 659.036 171.468 656.683 169.348 653.701L177.598 646.047C179.586 648.234 181.906 649.957 184.557 651.216C187.274 652.409 190.355 653.005 193.801 653.005C196.717 653.005 199.003 652.575 200.66 651.713C202.317 650.785 203.145 649.394 203.145 647.538C203.145 646.08 202.582 645.086 201.455 644.556C200.329 643.96 198.772 643.496 196.783 643.164L188.533 641.872C186.213 641.541 184.06 641.044 182.072 640.381C180.084 639.652 178.361 638.691 176.903 637.498C175.445 636.305 174.285 634.848 173.423 633.125C172.562 631.402 172.131 629.314 172.131 626.862C172.131 621.494 174.186 617.286 178.294 614.238C182.403 611.189 188.168 609.665 195.591 609.665C200.627 609.665 204.901 610.361 208.414 611.753C211.992 613.078 214.842 615 216.963 617.518L209.607 625.868C208.082 624.211 206.127 622.82 203.742 621.693C201.356 620.566 198.473 620.003 195.094 620.003C189.394 620.003 186.545 621.726 186.545 625.172C186.545 626.696 187.108 627.757 188.235 628.353C189.361 628.883 190.919 629.314 192.907 629.645L201.058 630.938C203.377 631.269 205.531 631.799 207.519 632.528C209.507 633.191 211.23 634.119 212.688 635.311C214.212 636.504 215.405 637.962 216.267 639.685C217.128 641.408 217.559 643.496 217.559 645.948C217.559 651.316 215.472 655.557 211.297 658.671C207.188 661.786 201.323 663.343 193.702 663.343Z" fill="black"/>
<path d="M248.691 588.591H259.527L253.86 620.997H234.974L248.691 588.591ZM261.078 662.15V610.857H275.79V620.201H276.386C276.983 618.744 277.712 617.385 278.573 616.126C279.435 614.867 280.462 613.773 281.655 612.846C282.914 611.851 284.339 611.089 285.929 610.559C287.586 609.963 289.442 609.665 291.496 609.665C293.948 609.665 296.201 610.095 298.255 610.957C300.31 611.752 302.066 612.978 303.524 614.635C304.982 616.292 306.108 618.313 306.904 620.698C307.765 623.084 308.196 625.834 308.196 628.949V662.15H293.484V630.937C293.484 624.31 290.601 620.997 284.836 620.997C283.709 620.997 282.583 621.162 281.456 621.494C280.396 621.759 279.435 622.223 278.573 622.885C277.712 623.482 277.016 624.244 276.486 625.172C276.022 626.099 275.79 627.193 275.79 628.452V662.15H261.078Z" fill="#6C0164"/>
<path d="M333.224 592.766H357.579C364.404 592.766 369.606 594.423 373.185 597.736C376.83 601.05 378.652 605.556 378.652 611.255C378.652 615.231 377.658 618.412 375.67 620.798C373.748 623.117 370.965 624.807 367.32 625.868V626.464C371.628 627.524 374.941 629.38 377.261 632.031C379.646 634.682 380.839 638.359 380.839 643.065C380.839 648.896 378.984 653.535 375.273 656.981C371.628 660.427 366.492 662.15 359.865 662.15H333.224V592.766ZM355.292 651.713C358.871 651.713 361.488 651.116 363.145 649.924C364.802 648.731 365.63 646.544 365.63 643.363V640.48C365.63 637.299 364.802 635.112 363.145 633.919C361.488 632.727 358.871 632.13 355.292 632.13H347.738V651.713H355.292ZM353.404 622.19C356.916 622.19 359.467 621.626 361.058 620.5C362.648 619.307 363.443 617.186 363.443 614.138V611.156C363.443 608.107 362.648 606.02 361.058 604.893C359.467 603.767 356.916 603.203 353.404 603.203H347.738V622.19H353.404ZM422.948 610.858H437.958L413.803 670.401C412.278 674.178 410.257 677.061 407.739 679.049C405.221 681.037 401.775 682.031 397.401 682.031H387.262V670.6H399.588L402.769 661.852L382.093 610.858H397.898L405.353 632.428L410.025 647.339H410.82L415.294 632.428L422.948 610.858ZM468.635 662.15C463.333 662.15 459.39 660.759 456.806 657.975C454.221 655.192 452.929 651.647 452.929 647.339V622.289H439.013V610.858H448.058C450.245 610.858 451.803 610.427 452.73 609.565C453.658 608.704 454.122 607.113 454.122 604.794V592.766H467.641V610.858H487.621V622.289H467.641V650.719H487.621V662.15H468.635ZM520.684 663.343C512.069 663.343 505.542 660.957 501.101 656.186C496.661 651.415 494.441 644.92 494.441 636.703C494.441 632.528 495.005 628.784 496.131 625.47C497.324 622.09 498.981 619.241 501.101 616.921C503.288 614.536 505.906 612.746 508.954 611.553C512.069 610.294 515.548 609.665 519.392 609.665C523.236 609.665 526.682 610.294 529.73 611.553C532.778 612.746 535.363 614.469 537.484 616.722C539.604 618.976 541.228 621.726 542.354 624.973C543.547 628.154 544.144 631.733 544.144 635.709V640.082H509.054V640.977C509.054 644.291 510.081 646.975 512.135 649.029C514.19 651.017 517.205 652.011 521.181 652.011C524.23 652.011 526.847 651.448 529.034 650.321C531.221 649.128 533.11 647.571 534.7 645.649L542.653 654.297C540.664 656.749 537.881 658.87 534.303 660.659C530.724 662.448 526.185 663.343 520.684 663.343ZM519.491 620.202C516.31 620.202 513.759 621.196 511.837 623.184C509.982 625.106 509.054 627.723 509.054 631.037V631.832H529.73V631.037C529.73 627.657 528.802 625.006 526.947 623.084C525.157 621.163 522.672 620.202 519.491 620.202ZM573.33 663.343C567.63 663.343 562.66 662.482 558.419 660.759C554.244 659.036 551.096 656.683 548.976 653.701L557.226 646.047C559.214 648.234 561.534 649.957 564.184 651.216C566.902 652.409 569.983 653.005 573.429 653.005C576.345 653.005 578.631 652.574 580.288 651.713C581.945 650.785 582.773 649.393 582.773 647.538C582.773 646.08 582.21 645.086 581.083 644.556C579.957 643.959 578.399 643.495 576.411 643.164L568.161 641.872C565.841 641.54 563.687 641.043 561.699 640.381C559.711 639.652 557.988 638.691 556.53 637.498C555.072 636.305 553.913 634.847 553.051 633.124C552.19 631.401 551.759 629.314 551.759 626.862C551.759 621.494 553.813 617.286 557.922 614.237C562.031 611.189 567.796 609.665 575.218 609.665C580.255 609.665 584.529 610.361 588.042 611.752C591.62 613.078 594.47 614.999 596.59 617.518L589.234 625.868C587.71 624.211 585.755 622.819 583.37 621.693C580.984 620.566 578.101 620.003 574.721 620.003C569.022 620.003 566.173 621.726 566.173 625.172C566.173 626.696 566.736 627.756 567.862 628.353C568.989 628.883 570.546 629.314 572.534 629.645L580.686 630.937C583.005 631.269 585.159 631.799 587.147 632.528C589.135 633.19 590.858 634.118 592.316 635.311C593.84 636.504 595.033 637.962 595.894 639.685C596.756 641.408 597.187 643.495 597.187 645.947C597.187 651.315 595.099 655.556 590.924 658.671C586.816 661.786 580.951 663.343 573.33 663.343Z" fill="black"/>
</svg>
