<svg width="420" height="400" viewBox="0 0 420 400" fill="none" xmlns="http://www.w3.org/2000/svg">
<path opacity="0.3" d="M419.048 200L373.333 146.667L379.048 76.1905L310.476 60.9524L274.286 0L209.524 28.5714L144.762 0L108.571 60.9524L40 76.1905L45.7143 146.667L0 200L45.7143 253.333L40 323.81L108.571 339.048L144.762 400L209.524 371.429L274.286 400L310.476 339.048L379.048 323.81L373.333 253.333L419.048 200ZM337.143 293.333L285.714 304.762L259.048 350.476L209.524 329.524L160 350.476L133.333 304.762L81.9048 293.333L85.7143 240L51.4286 200L85.7143 160L81.9048 106.667L133.333 95.2381L160 49.5238L209.524 70.4762L259.048 49.5238L285.714 95.2381L337.143 106.667L333.333 160L367.619 200L333.333 240L337.143 293.333ZM297.143 116.19L323.81 142.857L171.429 295.238L95.2381 219.048L121.905 192.381L171.429 241.905L297.143 116.19Z" fill="#6C0164"/>
</svg>
