<svg width="69" height="66" viewBox="0 0 69 66" fill="none" xmlns="http://www.w3.org/2000/svg">
<path fill-rule="evenodd" clip-rule="evenodd" d="M28 53C41.8071 53 53 41.8071 53 28C53 14.1929 41.8071 3 28 3C14.1929 3 3 14.1929 3 28C3 41.8071 14.1929 53 28 53ZM28 56C43.464 56 56 43.464 56 28C56 12.536 43.464 0 28 0C12.536 0 0 12.536 0 28C0 43.464 12.536 56 28 56ZM28 46C37.9411 46 46 37.9411 46 28C46 18.0589 37.9411 10 28 10C18.0589 10 10 18.0589 10 28C10 37.9411 18.0589 46 28 46ZM28 49C39.598 49 49 39.598 49 28C49 16.402 39.598 7 28 7C16.402 7 7 16.402 7 28C7 39.598 16.402 49 28 49ZM39 28C39 34.0751 34.0751 39 28 39C21.9249 39 17 34.0751 17 28C17 21.9249 21.9249 17 28 17C34.0751 17 39 21.9249 39 28ZM42 28C42 35.732 35.732 42 28 42C20.268 42 14 35.732 14 28C14 20.268 20.268 14 28 14C35.732 14 42 20.268 42 28Z" fill="white"/>
<rect x="24.948" y="17.7252" width="28.5937" height="18.7844" rx="3" transform="rotate(19.3463 24.948 17.7252)" fill="#F76902" stroke="#6C0164" stroke-width="2"/>
<mask id="path-3-outside-1_39_152" maskUnits="userSpaceOnUse" x="34" y="30" width="35" height="36" fill="black">
<rect fill="white" x="34" y="30" width="35" height="36"/>
<path fill-rule="evenodd" clip-rule="evenodd" d="M49.5502 39.0953L46.0504 37.5953L48.2248 33.9713C48.7071 33.1675 49.6829 32.8065 50.5722 33.1028L58.6198 35.7852C59.2067 35.9808 59.6701 36.4368 59.8747 37.0206L66.2141 55.0955L58.7797 62.5299L48.1428 54.3782C48.0176 54.2825 47.9047 54.1724 47.8061 54.0508C47.7132 53.9363 47.6329 53.8113 47.5671 53.6783L45.0502 48.5953L45.0753 48.5704L41.5689 45.064L37.0251 40.5201C35.6583 39.1534 35.6583 36.9371 37.0251 35.5704C38.3919 34.2034 40.608 34.2034 41.9748 35.5704L49.5502 43.1456V39.0953ZM39.6192 46.5735C38.8722 47.1071 37.8612 46.4365 38.0622 45.5408L38.6109 43.0954L40.9891 45.595L39.6192 46.5735ZM41.3786 46.0952L38.5501 48.9236L43.0503 52.0955C43.3174 52.9651 44.414 53.2377 45.0572 52.5945L45.405 52.2468C45.9918 51.6599 45.9918 50.7084 45.405 50.1216L41.3786 46.0952Z"/>
</mask>
<path fill-rule="evenodd" clip-rule="evenodd" d="M49.5502 39.0953L46.0504 37.5953L48.2248 33.9713C48.7071 33.1675 49.6829 32.8065 50.5722 33.1028L58.6198 35.7852C59.2067 35.9808 59.6701 36.4368 59.8747 37.0206L66.2141 55.0955L58.7797 62.5299L48.1428 54.3782C48.0176 54.2825 47.9047 54.1724 47.8061 54.0508C47.7132 53.9363 47.6329 53.8113 47.5671 53.6783L45.0502 48.5953L45.0753 48.5704L41.5689 45.064L37.0251 40.5201C35.6583 39.1534 35.6583 36.9371 37.0251 35.5704C38.3919 34.2034 40.608 34.2034 41.9748 35.5704L49.5502 43.1456V39.0953ZM39.6192 46.5735C38.8722 47.1071 37.8612 46.4365 38.0622 45.5408L38.6109 43.0954L40.9891 45.595L39.6192 46.5735ZM41.3786 46.0952L38.5501 48.9236L43.0503 52.0955C43.3174 52.9651 44.414 53.2377 45.0572 52.5945L45.405 52.2468C45.9918 51.6599 45.9918 50.7084 45.405 50.1216L41.3786 46.0952Z" fill="#F76902"/>
<path d="M46.0504 37.5953L44.3354 36.5663L43.1565 38.531L45.2625 39.4336L46.0504 37.5953ZM49.5502 39.0953H51.5502V37.7765L50.3381 37.257L49.5502 39.0953ZM48.2248 33.9713L46.5099 32.9421L46.5098 32.9423L48.2248 33.9713ZM50.5722 33.1028L51.2046 31.2055L51.2046 31.2055L50.5722 33.1028ZM58.6198 35.7852L57.9874 37.6826L57.9876 37.6827L58.6198 35.7852ZM59.8747 37.0206L57.9873 37.6821L57.9874 37.6825L59.8747 37.0206ZM66.2141 55.0955L67.6283 56.5097L68.5176 55.6204L68.1013 54.4336L66.2141 55.0955ZM58.7797 62.5299L57.5632 64.1173L58.9545 65.1835L60.1939 63.9441L58.7797 62.5299ZM48.1428 54.3782L49.3593 52.7908L49.3578 52.7897L48.1428 54.3782ZM47.8061 54.0508L49.3593 52.7908L49.3592 52.7908L47.8061 54.0508ZM47.5671 53.6783L49.3599 52.7918L49.3594 52.7908L47.5671 53.6783ZM45.0502 48.5953L43.6395 47.1776L42.6192 48.1929L43.2579 49.4827L45.0502 48.5953ZM45.0753 48.5704L46.486 49.988L47.9071 48.5738L46.4895 47.1562L45.0753 48.5704ZM41.5689 45.064L40.1547 46.4782L40.1547 46.4782L41.5689 45.064ZM37.0251 40.5201L38.4393 39.1059L38.4392 39.1058L37.0251 40.5201ZM37.0251 35.5704L38.4392 36.9847L38.4394 36.9845L37.0251 35.5704ZM41.9748 35.5704L40.5605 36.9845L40.5606 36.9846L41.9748 35.5704ZM49.5502 43.1456L48.136 44.5598L51.5502 47.9739V43.1456H49.5502ZM38.0622 45.5408L36.1107 45.1029H36.1107L38.0622 45.5408ZM39.6192 46.5735L40.7817 48.201L39.6192 46.5735ZM38.6109 43.0954L40.0599 41.7168L37.4792 39.0044L36.6595 42.6575L38.6109 43.0954ZM40.9891 45.595L42.1516 47.2225L44.025 45.8843L42.4381 44.2164L40.9891 45.595ZM38.5501 48.9236L37.1359 47.5094L35.4558 49.1895L37.3979 50.5584L38.5501 48.9236ZM41.3786 46.0952L42.7928 44.681L41.3786 43.2668L39.9644 44.681L41.3786 46.0952ZM43.0503 52.0955L44.9621 51.5082L44.7613 50.8547L44.2025 50.4608L43.0503 52.0955ZM45.0572 52.5945L43.643 51.1803H43.643L45.0572 52.5945ZM45.405 52.2468L43.9908 50.8326L43.9907 50.8326L45.405 52.2468ZM45.2625 39.4336L48.7624 40.9336L50.3381 37.257L46.8382 35.757L45.2625 39.4336ZM46.5098 32.9423L44.3354 36.5663L47.7653 38.6243L49.9398 35.0003L46.5098 32.9423ZM51.2046 31.2055C49.4259 30.6126 47.4744 31.3349 46.5099 32.9421L49.9397 35.0004L49.9398 35.0002L51.2046 31.2055ZM59.2522 33.8878L51.2046 31.2055L49.9398 35.0002L57.9874 37.6826L59.2522 33.8878ZM61.7621 36.3591C61.3527 35.191 60.4256 34.2788 59.252 33.8878L57.9876 37.6827L57.9873 37.6821L61.7621 36.3591ZM68.1013 54.4336L61.762 36.3587L57.9874 37.6825L64.3268 55.7574L68.1013 54.4336ZM60.1939 63.9441L67.6283 56.5097L64.7998 53.6813L57.3655 61.1156L60.1939 63.9441ZM46.9262 55.9657L57.5632 64.1173L59.9963 60.9424L49.3593 52.7908L46.9262 55.9657ZM46.2529 55.3109C46.4497 55.5535 46.6759 55.7742 46.9277 55.9668L49.3578 52.7897C49.3594 52.7909 49.3597 52.7914 49.3593 52.7908L46.2529 55.3109ZM45.7743 54.5648C45.9061 54.8313 46.0669 55.0815 46.253 55.3109L49.3592 52.7908C49.3595 52.7911 49.3597 52.7914 49.3599 52.7918L45.7743 54.5648ZM43.2579 49.4827L45.7748 54.5658L49.3594 52.7908L46.8426 47.7078L43.2579 49.4827ZM43.6645 47.1527L43.6395 47.1776L46.461 50.0129L46.486 49.988L43.6645 47.1527ZM40.1547 46.4782L43.661 49.9846L46.4895 47.1562L42.9831 43.6498L40.1547 46.4782ZM35.6109 41.9343L40.1547 46.4782L42.9831 43.6498L38.4393 39.1059L35.6109 41.9343ZM35.6109 34.1561C33.463 36.3039 33.463 39.7866 35.6109 41.9344L38.4392 39.1058C37.8535 38.5202 37.8535 37.5703 38.4392 36.9847L35.6109 34.1561ZM43.3891 34.1562C41.2412 32.0081 37.7587 32.0081 35.6108 34.1562L38.4394 36.9845C39.0251 36.3987 39.9748 36.3987 40.5605 36.9845L43.3891 34.1562ZM50.9644 41.7313L43.389 34.1561L40.5606 36.9846L48.136 44.5598L50.9644 41.7313ZM47.5502 39.0953V43.1456H51.5502V39.0953H47.5502ZM36.1107 45.1029C35.5078 47.79 38.5408 49.8016 40.7817 48.201L38.4567 44.946C39.2037 44.4125 40.2147 45.083 40.0137 45.9787L36.1107 45.1029ZM36.6595 42.6575L36.1107 45.1029L40.0137 45.9787L40.5624 43.5333L36.6595 42.6575ZM42.4381 44.2164L40.0599 41.7168L37.162 44.474L39.5401 46.9736L42.4381 44.2164ZM40.7817 48.201L42.1516 47.2225L39.8266 43.9675L38.4567 44.946L40.7817 48.201ZM39.9644 50.3378L42.7928 47.5094L39.9644 44.681L37.1359 47.5094L39.9644 50.3378ZM44.2025 50.4608L39.7024 47.2889L37.3979 50.5584L41.898 53.7302L44.2025 50.4608ZM43.643 51.1803C44.0658 50.7575 44.7866 50.9367 44.9621 51.5082L41.1384 52.6827C41.8482 54.9935 44.7622 55.718 46.4715 54.0087L43.643 51.1803ZM43.9907 50.8326L43.643 51.1803L46.4715 54.0087L46.8192 53.661L43.9907 50.8326ZM43.9907 51.5358C43.7966 51.3416 43.7966 51.0268 43.9908 50.8326L46.8192 53.661C48.1871 52.2931 48.1871 50.0753 46.8192 48.7074L43.9907 51.5358ZM39.9644 47.5094L43.9907 51.5358L46.8192 48.7074L42.7928 44.681L39.9644 47.5094Z" fill="#6C0164" mask="url(#path-3-outside-1_39_152)"/>
</svg>
