<svg width="2925" height="691" viewBox="0 0 2925 691" fill="none" xmlns="http://www.w3.org/2000/svg">
<path fill-rule="evenodd" clip-rule="evenodd" d="M0 83C0 66.4315 13.4315 53 30 53H421.901V53.001C529.708 53.2706 617 125.025 617 213.5C617 261.778 591.009 305.077 549.876 334.5C591.009 363.923 617 407.222 617 455.5C617 543.975 529.708 615.729 421.901 615.999V616H421.291H30C13.4314 616 0 602.568 0 586V374V295V83Z" fill="#F76902"/>
<path fill-rule="evenodd" clip-rule="evenodd" d="M0 83C0 66.4315 13.4315 53 30 53H346V53.001C434.412 53.2706 506 125.025 506 213.5C506 261.778 484.685 305.077 450.952 334.5C484.685 363.923 506 407.222 506 455.5C506 543.975 434.412 615.729 346 615.999V616H345.5H173.5V401.721L240.135 469.131C239.392 472.469 239 475.939 239 479.5C239 505.734 260.266 527 286.5 527C312.734 527 334 505.734 334 479.5C334 453.267 312.734 432 286.5 432C284.233 432 282.004 432.159 279.822 432.466L165.702 317.019C158.005 309.233 146.367 306.865 136.24 311.026C126.112 315.187 119.5 325.052 119.5 336.001V616H30C13.4315 616 0 602.568 0 586V374V295V83ZM119.5 616H173.5V616.001H119.5V616ZM54.8164 53.0004L239.487 237.671C239.166 239.901 239 242.181 239 244.5C239 270.734 260.266 292 286.5 292C312.734 292 334 270.734 334 244.5C334 218.267 312.734 197 286.5 197C282.993 197 279.575 197.38 276.285 198.101L131.184 53.0004H54.8164Z" fill="#6C0164"/>
<path d="M705.849 122.488H797.64C823.367 122.488 842.974 128.732 856.462 141.221C870.199 153.709 877.068 170.694 877.068 192.174C877.068 207.161 873.321 219.15 865.828 228.142C858.585 236.884 848.094 243.253 834.357 247.249V249.497C850.592 253.494 863.081 260.487 871.823 270.478C880.815 280.469 885.311 294.332 885.311 312.065C885.311 334.045 878.317 351.53 864.33 364.518C850.592 377.506 831.235 384 806.257 384H705.849V122.488ZM789.023 344.661C802.511 344.661 812.377 342.413 818.621 337.917C824.866 333.421 827.988 325.178 827.988 313.189V302.324C827.988 290.335 824.866 282.093 818.621 277.597C812.377 273.101 802.511 270.853 789.023 270.853H760.549V344.661H789.023ZM781.905 233.387C795.143 233.387 804.759 231.264 810.753 227.018C816.748 222.522 819.745 214.529 819.745 203.04V191.8C819.745 180.31 816.748 172.442 810.753 168.196C804.759 163.95 795.143 161.827 781.905 161.827H760.549V233.387H781.905ZM1007.3 165.948C994.815 165.948 986.072 163.451 981.077 158.455C976.331 153.21 973.958 146.966 973.958 139.722V128.857C973.958 121.364 976.331 115.12 981.077 110.124C986.072 105.129 994.815 102.631 1007.3 102.631C1019.79 102.631 1028.41 105.129 1033.15 110.124C1038.15 115.12 1040.65 121.364 1040.65 128.857V139.722C1040.65 146.966 1038.15 153.21 1033.15 158.455C1028.41 163.451 1019.79 165.948 1007.3 165.948ZM918.134 340.914H979.578V233.762H918.134V190.676H1035.03V340.914H1091.98V384H918.134V340.914ZM1216.22 384C1196.23 384 1181.37 378.755 1171.63 368.264C1161.89 357.774 1157.02 344.411 1157.02 328.176V233.762H1104.57V190.676H1138.66C1146.9 190.676 1152.77 189.052 1156.27 185.805C1159.77 182.558 1161.52 176.564 1161.52 167.822V122.488H1212.47V190.676H1287.78V233.762H1212.47V340.914H1287.78V384H1216.22ZM1404.9 388.496C1383.42 388.496 1364.69 385.249 1348.7 378.755C1332.96 372.261 1321.1 363.394 1313.11 352.154L1344.2 323.305C1351.7 331.548 1360.44 338.042 1370.43 342.787C1380.67 347.283 1392.29 349.531 1405.27 349.531C1416.26 349.531 1424.88 347.908 1431.12 344.661C1437.37 341.164 1440.49 335.919 1440.49 328.925C1440.49 323.43 1438.37 319.683 1434.12 317.685C1429.88 315.437 1424.01 313.689 1416.51 312.44L1385.42 307.569C1376.67 306.321 1368.56 304.447 1361.06 301.95C1353.57 299.202 1347.08 295.58 1341.58 291.084C1336.09 286.589 1331.72 281.094 1328.47 274.599C1325.22 268.105 1323.6 260.238 1323.6 250.996C1323.6 230.764 1331.34 214.904 1346.83 203.414C1362.31 191.925 1384.04 186.18 1412.02 186.18C1431 186.18 1447.11 188.803 1460.35 194.048C1473.84 199.043 1484.58 206.287 1492.57 215.778L1464.84 247.249C1459.1 241.005 1451.73 235.76 1442.74 231.514C1433.75 227.268 1422.88 225.144 1410.14 225.144C1388.66 225.144 1377.92 231.639 1377.92 244.627C1377.92 250.372 1380.05 254.368 1384.29 256.616C1388.54 258.614 1394.41 260.238 1401.9 261.486L1432.62 266.357C1441.37 267.606 1449.48 269.604 1456.98 272.352C1464.47 274.849 1470.96 278.346 1476.46 282.842C1482.2 287.338 1486.7 292.833 1489.95 299.327C1493.19 305.821 1494.82 313.689 1494.82 322.931C1494.82 343.162 1486.95 359.148 1471.21 370.887C1455.73 382.626 1433.62 388.496 1404.9 388.496Z" fill="black"/>
<path d="M1600.84 106.752H1641.68L1620.32 228.891H1549.14L1600.84 106.752ZM1647.53 384V190.676H1702.98V225.894H1705.22C1707.47 220.399 1710.22 215.278 1713.47 210.533C1716.71 205.787 1720.59 201.666 1725.08 198.169C1729.83 194.422 1735.2 191.55 1741.19 189.552C1747.44 187.304 1754.43 186.18 1762.17 186.18C1771.41 186.18 1779.91 187.803 1787.65 191.05C1795.39 194.048 1802.01 198.669 1807.51 204.913C1813 211.157 1817.25 218.775 1820.25 227.767C1823.49 236.759 1825.12 247.124 1825.12 258.864V384H1769.67V266.357C1769.67 241.38 1758.8 228.891 1737.07 228.891C1732.82 228.891 1728.58 229.515 1724.33 230.764C1720.34 231.763 1716.71 233.512 1713.47 236.01C1710.22 238.258 1707.6 241.13 1705.6 244.627C1703.85 248.124 1702.98 252.245 1702.98 256.99V384H1647.53Z" fill="#6C0164"/>
<path d="M1904.38 122.488H1996.17C2021.89 122.488 2041.5 128.732 2054.99 141.221C2068.73 153.709 2075.6 170.694 2075.6 192.174C2075.6 207.161 2071.85 219.15 2064.36 228.142C2057.11 236.884 2046.62 243.253 2032.88 247.249V249.497C2049.12 253.494 2061.61 260.487 2070.35 270.478C2079.34 280.469 2083.84 294.332 2083.84 312.065C2083.84 334.045 2076.84 351.53 2062.86 364.518C2049.12 377.506 2029.76 384 2004.78 384H1904.38V122.488ZM1987.55 344.661C2001.04 344.661 2010.9 342.413 2017.15 337.917C2023.39 333.421 2026.52 325.178 2026.52 313.189V302.324C2026.52 290.335 2023.39 282.093 2017.15 277.597C2010.9 273.101 2001.04 270.853 1987.55 270.853H1959.08V344.661H1987.55ZM1980.43 233.387C1993.67 233.387 2003.29 231.264 2009.28 227.018C2015.28 222.522 2018.27 214.529 2018.27 203.04V191.8C2018.27 180.31 2015.28 172.442 2009.28 168.196C2003.29 163.95 1993.67 161.827 1980.43 161.827H1959.08V233.387H1980.43ZM2242.55 190.676H2299.12L2208.08 415.097C2202.33 429.334 2194.72 440.199 2185.22 447.692C2175.73 455.185 2162.74 458.932 2146.26 458.932H2108.04V415.846H2154.5L2166.49 382.876L2088.56 190.676H2148.13L2176.23 271.977L2193.84 328.176H2196.84L2213.7 271.977L2242.55 190.676ZM2414.74 384C2394.76 384 2379.9 378.755 2370.16 368.264C2360.42 357.774 2355.55 344.411 2355.55 328.176V233.762H2303.1V190.676H2337.19C2345.43 190.676 2351.3 189.052 2354.8 185.805C2358.3 182.558 2360.04 176.564 2360.04 167.822V122.488H2411V190.676H2486.3V233.762H2411V340.914H2486.3V384H2414.74ZM2610.92 388.496C2578.45 388.496 2553.85 379.504 2537.11 361.52C2520.38 343.537 2512.01 319.059 2512.01 288.087C2512.01 272.352 2514.13 258.239 2518.38 245.751C2522.87 233.012 2529.12 222.272 2537.11 213.53C2545.35 204.538 2555.22 197.794 2566.71 193.298C2578.45 188.553 2591.56 186.18 2606.05 186.18C2620.54 186.18 2633.52 188.553 2645.01 193.298C2656.5 197.794 2666.24 204.288 2674.24 212.781C2682.23 221.273 2688.35 231.639 2692.59 243.877C2697.09 255.867 2699.34 269.354 2699.34 284.341V300.826H2567.08V304.198C2567.08 316.686 2570.96 326.802 2578.7 334.545C2586.44 342.038 2597.81 345.785 2612.79 345.785C2624.28 345.785 2634.15 343.662 2642.39 339.416C2650.63 334.92 2657.75 329.05 2663.75 321.807L2693.72 354.402C2686.23 363.644 2675.74 371.636 2662.25 378.38C2648.76 385.124 2631.65 388.496 2610.92 388.496ZM2606.42 225.894C2594.43 225.894 2584.82 229.64 2577.57 237.134C2570.58 244.377 2567.08 254.243 2567.08 266.732V269.729H2645.01V266.732C2645.01 253.993 2641.52 244.002 2634.52 236.759C2627.78 229.515 2618.41 225.894 2606.42 225.894ZM2809.34 388.496C2787.86 388.496 2769.13 385.249 2753.14 378.755C2737.41 372.261 2725.54 363.394 2717.55 352.154L2748.65 323.305C2756.14 331.548 2764.88 338.042 2774.87 342.787C2785.11 347.283 2796.73 349.531 2809.72 349.531C2820.71 349.531 2829.32 347.908 2835.57 344.661C2841.81 341.164 2844.93 335.919 2844.93 328.925C2844.93 323.43 2842.81 319.683 2838.57 317.685C2834.32 315.437 2828.45 313.689 2820.96 312.44L2789.86 307.569C2781.12 306.321 2773 304.447 2765.51 301.95C2758.01 299.202 2751.52 295.58 2746.02 291.084C2740.53 286.589 2736.16 281.094 2732.91 274.599C2729.66 268.105 2728.04 260.238 2728.04 250.996C2728.04 230.764 2735.78 214.904 2751.27 203.414C2766.76 191.925 2788.49 186.18 2816.46 186.18C2835.44 186.18 2851.55 188.803 2864.79 194.048C2878.28 199.043 2889.02 206.287 2897.01 215.778L2869.29 247.249C2863.54 241.005 2856.17 235.76 2847.18 231.514C2838.19 227.268 2827.33 225.144 2814.59 225.144C2793.11 225.144 2782.37 231.639 2782.37 244.627C2782.37 250.372 2784.49 254.368 2788.74 256.616C2792.98 258.614 2798.85 260.238 2806.34 261.486L2837.07 266.357C2845.81 267.606 2853.93 269.604 2861.42 272.352C2868.91 274.849 2875.41 278.346 2880.9 282.842C2886.65 287.338 2891.14 292.833 2894.39 299.327C2897.64 305.821 2899.26 313.689 2899.26 322.931C2899.26 343.162 2891.39 359.148 2875.66 370.887C2860.17 382.626 2838.07 388.496 2809.34 388.496Z" fill="black"/>
<path d="M716.99 552.427C716.99 550.988 716.765 549.719 716.313 548.618C715.89 547.49 715.128 546.474 714.028 545.572C712.956 544.669 711.461 543.808 709.542 542.99C707.652 542.172 705.254 541.34 702.348 540.493C699.301 539.591 696.551 538.589 694.096 537.489C691.642 536.36 689.54 535.077 687.791 533.638C686.042 532.199 684.702 530.549 683.771 528.687C682.84 526.825 682.374 524.695 682.374 522.297C682.374 519.899 682.868 517.684 683.855 515.653C684.843 513.622 686.253 511.859 688.087 510.363C689.949 508.84 692.164 507.655 694.731 506.809C697.298 505.962 700.162 505.539 703.322 505.539C707.948 505.539 711.87 506.428 715.086 508.205C718.33 509.954 720.799 512.253 722.492 515.103C724.184 517.924 725.031 520.943 725.031 524.159H716.906C716.906 521.845 716.412 519.8 715.424 518.023C714.437 516.217 712.942 514.807 710.939 513.791C708.936 512.747 706.397 512.225 703.322 512.225C700.416 512.225 698.018 512.663 696.128 513.537C694.237 514.412 692.827 515.597 691.896 517.092C690.993 518.587 690.542 520.294 690.542 522.212C690.542 523.51 690.81 524.695 691.346 525.767C691.91 526.811 692.77 527.784 693.927 528.687C695.112 529.59 696.607 530.422 698.413 531.184C700.247 531.945 702.433 532.679 704.972 533.384C708.47 534.372 711.489 535.472 714.028 536.685C716.567 537.898 718.655 539.266 720.291 540.79C721.956 542.285 723.183 543.992 723.973 545.91C724.791 547.8 725.2 549.944 725.2 552.342C725.2 554.853 724.692 557.124 723.676 559.156C722.661 561.187 721.208 562.922 719.318 564.361C717.428 565.799 715.156 566.914 712.505 567.704C709.881 568.465 706.947 568.846 703.702 568.846C700.853 568.846 698.046 568.451 695.281 567.661C692.545 566.872 690.048 565.687 687.791 564.107C685.562 562.527 683.771 560.58 682.417 558.267C681.091 555.925 680.428 553.217 680.428 550.142H688.553C688.553 552.258 688.962 554.077 689.78 555.601C690.598 557.096 691.712 558.337 693.123 559.325C694.562 560.312 696.184 561.046 697.99 561.525C699.823 561.977 701.728 562.202 703.702 562.202C706.552 562.202 708.964 561.808 710.939 561.018C712.914 560.228 714.409 559.099 715.424 557.632C716.468 556.165 716.99 554.43 716.99 552.427ZM744.812 531.311V568H736.94V522.212H744.388L744.812 531.311ZM743.204 543.371L739.564 543.244C739.592 540.113 740.001 537.221 740.791 534.569C741.581 531.889 742.752 529.561 744.304 527.587C745.855 525.612 747.788 524.088 750.101 523.016C752.415 521.916 755.095 521.366 758.142 521.366C760.286 521.366 762.261 521.676 764.066 522.297C765.872 522.889 767.437 523.834 768.763 525.132C770.089 526.43 771.119 528.094 771.853 530.126C772.586 532.157 772.953 534.611 772.953 537.489V568H765.124V537.87C765.124 535.472 764.715 533.553 763.897 532.115C763.107 530.676 761.978 529.632 760.511 528.983C759.044 528.306 757.324 527.967 755.349 527.967C753.035 527.967 751.103 528.377 749.551 529.195C748 530.013 746.758 531.141 745.827 532.58C744.896 534.019 744.219 535.669 743.796 537.531C743.401 539.365 743.204 541.312 743.204 543.371ZM772.868 539.055L767.621 540.663C767.649 538.152 768.058 535.74 768.848 533.426C769.666 531.113 770.837 529.054 772.36 527.248C773.912 525.442 775.816 524.018 778.073 522.974C780.33 521.902 782.912 521.366 785.817 521.366C788.272 521.366 790.444 521.69 792.334 522.339C794.253 522.988 795.861 523.99 797.159 525.344C798.485 526.67 799.486 528.377 800.163 530.464C800.84 532.552 801.179 535.035 801.179 537.912V568H793.308V537.827C793.308 535.26 792.899 533.271 792.08 531.861C791.291 530.422 790.162 529.42 788.695 528.856C787.256 528.264 785.535 527.967 783.532 527.967C781.811 527.967 780.288 528.264 778.962 528.856C777.636 529.449 776.522 530.267 775.619 531.311C774.716 532.326 774.025 533.497 773.545 534.823C773.094 536.149 772.868 537.559 772.868 539.055ZM842.626 560.171V536.6C842.626 534.795 842.26 533.229 841.526 531.903C840.821 530.549 839.749 529.505 838.31 528.771C836.871 528.038 835.094 527.671 832.978 527.671C831.003 527.671 829.268 528.01 827.773 528.687C826.306 529.364 825.149 530.253 824.303 531.353C823.485 532.453 823.076 533.638 823.076 534.908H815.247C815.247 533.271 815.67 531.649 816.516 530.041C817.363 528.433 818.576 526.98 820.156 525.682C821.764 524.356 823.682 523.312 825.911 522.551C828.168 521.761 830.679 521.366 833.444 521.366C836.772 521.366 839.707 521.93 842.246 523.059C844.813 524.187 846.816 525.894 848.255 528.179C849.722 530.436 850.455 533.271 850.455 536.685V558.013C850.455 559.536 850.582 561.159 850.836 562.88C851.118 564.6 851.527 566.082 852.063 567.323V568H843.896C843.501 567.097 843.191 565.898 842.965 564.403C842.739 562.88 842.626 561.469 842.626 560.171ZM843.981 540.24L844.065 545.741H836.152C833.923 545.741 831.934 545.924 830.185 546.291C828.436 546.63 826.969 547.151 825.784 547.857C824.599 548.562 823.696 549.451 823.076 550.523C822.455 551.567 822.145 552.794 822.145 554.204C822.145 555.643 822.469 556.955 823.118 558.14C823.767 559.325 824.74 560.27 826.038 560.975C827.364 561.652 828.986 561.991 830.904 561.991C833.302 561.991 835.418 561.483 837.252 560.467C839.086 559.452 840.539 558.211 841.611 556.743C842.711 555.276 843.304 553.852 843.388 552.469L846.731 556.236C846.534 557.421 845.998 558.732 845.123 560.171C844.249 561.61 843.078 562.992 841.611 564.318C840.172 565.616 838.451 566.702 836.448 567.577C834.473 568.423 832.245 568.846 829.762 568.846C826.659 568.846 823.936 568.24 821.595 567.027C819.281 565.814 817.476 564.191 816.178 562.16C814.908 560.101 814.274 557.801 814.274 555.262C814.274 552.808 814.753 550.65 815.712 548.788C816.672 546.898 818.054 545.332 819.86 544.09C821.665 542.821 823.837 541.862 826.376 541.213C828.916 540.564 831.751 540.24 834.882 540.24H843.981ZM873.198 529.406V568H865.37V522.212H872.987L873.198 529.406ZM887.502 521.958L887.46 529.237C886.811 529.096 886.19 529.011 885.598 528.983C885.033 528.927 884.384 528.898 883.651 528.898C881.845 528.898 880.251 529.181 878.869 529.745C877.487 530.309 876.316 531.099 875.357 532.115C874.397 533.13 873.636 534.343 873.071 535.754C872.535 537.136 872.183 538.66 872.014 540.324L869.813 541.594C869.813 538.829 870.081 536.234 870.617 533.807C871.181 531.381 872.042 529.237 873.198 527.375C874.355 525.485 875.822 524.018 877.599 522.974C879.405 521.902 881.549 521.366 884.032 521.366C884.596 521.366 885.245 521.436 885.978 521.577C886.712 521.69 887.22 521.817 887.502 521.958ZM918.624 522.212V528.221H893.868V522.212H918.624ZM902.247 511.083H910.076V556.659C910.076 558.211 910.316 559.381 910.795 560.171C911.275 560.961 911.895 561.483 912.657 561.737C913.419 561.991 914.237 562.118 915.112 562.118C915.76 562.118 916.438 562.061 917.143 561.949C917.876 561.808 918.426 561.695 918.793 561.61L918.836 568C918.215 568.197 917.397 568.381 916.381 568.55C915.394 568.748 914.195 568.846 912.784 568.846C910.866 568.846 909.102 568.465 907.494 567.704C905.886 566.942 904.603 565.673 903.644 563.895C902.713 562.09 902.247 559.663 902.247 556.617V511.083ZM975.579 558.648L993.733 506.385H1002.58L979.768 568H973.463L975.579 558.648ZM958.609 506.385L976.594 558.648L978.837 568H972.532L949.765 506.385H958.609ZM1029.43 568.846C1026.24 568.846 1023.35 568.31 1020.75 567.238C1018.18 566.138 1015.97 564.6 1014.11 562.626C1012.27 560.651 1010.86 558.309 1009.87 555.601C1008.89 552.893 1008.39 549.93 1008.39 546.714V544.937C1008.39 541.213 1008.94 537.898 1010.04 534.992C1011.14 532.058 1012.64 529.576 1014.53 527.544C1016.42 525.513 1018.56 523.975 1020.96 522.932C1023.36 521.888 1025.84 521.366 1028.41 521.366C1031.68 521.366 1034.5 521.93 1036.87 523.059C1039.27 524.187 1041.23 525.767 1042.76 527.798C1044.28 529.801 1045.41 532.171 1046.14 534.908C1046.87 537.616 1047.24 540.578 1047.24 543.794V547.307H1013.05V540.917H1039.41V540.324C1039.3 538.293 1038.88 536.318 1038.14 534.4C1037.44 532.481 1036.31 530.901 1034.76 529.66C1033.21 528.419 1031.09 527.798 1028.41 527.798C1026.63 527.798 1025 528.179 1023.5 528.941C1022.01 529.674 1020.72 530.775 1019.65 532.242C1018.58 533.709 1017.75 535.5 1017.15 537.616C1016.56 539.732 1016.26 542.172 1016.26 544.937V546.714C1016.26 548.887 1016.56 550.932 1017.15 552.85C1017.77 554.74 1018.66 556.405 1019.82 557.844C1021 559.283 1022.43 560.411 1024.09 561.229C1025.79 562.047 1027.7 562.456 1029.85 562.456C1032.61 562.456 1034.95 561.892 1036.87 560.764C1038.79 559.635 1040.47 558.126 1041.91 556.236L1046.65 560.002C1045.66 561.497 1044.41 562.922 1042.88 564.276C1041.36 565.63 1039.48 566.73 1037.25 567.577C1035.05 568.423 1032.44 568.846 1029.43 568.846ZM1066.81 531.988V568H1058.98V522.212H1066.39L1066.81 531.988ZM1064.95 543.371L1061.69 543.244C1061.72 540.113 1062.18 537.221 1063.09 534.569C1063.99 531.889 1065.26 529.561 1066.9 527.587C1068.53 525.612 1070.48 524.088 1072.73 523.016C1075.02 521.916 1077.55 521.366 1080.31 521.366C1082.57 521.366 1084.6 521.676 1086.4 522.297C1088.21 522.889 1089.75 523.849 1091.02 525.174C1092.31 526.5 1093.3 528.221 1093.98 530.337C1094.66 532.425 1094.99 534.978 1094.99 537.997V568H1087.12V537.912C1087.12 535.514 1086.77 533.596 1086.06 532.157C1085.36 530.69 1084.33 529.632 1082.98 528.983C1081.62 528.306 1079.96 527.967 1077.98 527.967C1076.04 527.967 1074.26 528.377 1072.65 529.195C1071.07 530.013 1069.7 531.141 1068.55 532.58C1067.42 534.019 1066.53 535.669 1065.88 537.531C1065.26 539.365 1064.95 541.312 1064.95 543.371ZM1138.35 559.113V503H1146.22V568H1139.02L1138.35 559.113ZM1107.54 545.614V544.725C1107.54 541.227 1107.96 538.053 1108.81 535.204C1109.68 532.326 1110.91 529.858 1112.49 527.798C1114.1 525.739 1116 524.159 1118.2 523.059C1120.43 521.93 1122.91 521.366 1125.65 521.366C1128.53 521.366 1131.04 521.874 1133.18 522.889C1135.36 523.877 1137.19 525.33 1138.68 527.248C1140.21 529.138 1141.41 531.423 1142.28 534.104C1143.16 536.784 1143.76 539.816 1144.1 543.202V547.095C1143.79 550.452 1143.18 553.471 1142.28 556.151C1141.41 558.831 1140.21 561.116 1138.68 563.007C1137.19 564.897 1135.36 566.35 1133.18 567.365C1131.01 568.353 1128.47 568.846 1125.57 568.846C1122.89 568.846 1120.43 568.268 1118.2 567.111C1116 565.955 1114.1 564.332 1112.49 562.245C1110.91 560.157 1109.68 557.703 1108.81 554.882C1107.96 552.032 1107.54 548.943 1107.54 545.614ZM1115.41 544.725V545.614C1115.41 547.899 1115.64 550.043 1116.09 552.046C1116.57 554.049 1117.3 555.812 1118.29 557.336C1119.27 558.859 1120.53 560.058 1122.05 560.933C1123.58 561.779 1125.4 562.202 1127.51 562.202C1130.11 562.202 1132.24 561.652 1133.9 560.552C1135.6 559.452 1136.95 557.999 1137.97 556.193C1138.98 554.388 1139.77 552.427 1140.33 550.311V540.113C1140 538.561 1139.5 537.066 1138.85 535.627C1138.23 534.16 1137.42 532.862 1136.4 531.734C1135.41 530.577 1134.18 529.66 1132.72 528.983C1131.28 528.306 1129.57 527.967 1127.6 527.967C1125.45 527.967 1123.61 528.419 1122.05 529.322C1120.53 530.196 1119.27 531.409 1118.29 532.961C1117.3 534.484 1116.57 536.262 1116.09 538.293C1115.64 540.296 1115.41 542.44 1115.41 544.725ZM1169.51 522.212V568H1161.64V522.212H1169.51ZM1161.05 510.067C1161.05 508.798 1161.43 507.725 1162.19 506.851C1162.98 505.976 1164.14 505.539 1165.66 505.539C1167.15 505.539 1168.3 505.976 1169.09 506.851C1169.91 507.725 1170.31 508.798 1170.31 510.067C1170.31 511.28 1169.91 512.324 1169.09 513.199C1168.3 514.045 1167.15 514.468 1165.66 514.468C1164.14 514.468 1162.98 514.045 1162.19 513.199C1161.43 512.324 1161.05 511.28 1161.05 510.067ZM1192.51 531.988V568H1184.68V522.212H1192.08L1192.51 531.988ZM1190.65 543.371L1187.39 543.244C1187.42 540.113 1187.88 537.221 1188.78 534.569C1189.69 531.889 1190.96 529.561 1192.59 527.587C1194.23 525.612 1196.18 524.088 1198.43 523.016C1200.72 521.916 1203.24 521.366 1206.01 521.366C1208.26 521.366 1210.3 521.676 1212.1 522.297C1213.91 522.889 1215.44 523.849 1216.71 525.174C1218.01 526.5 1219 528.221 1219.68 530.337C1220.35 532.425 1220.69 534.978 1220.69 537.997V568H1212.82V537.912C1212.82 535.514 1212.47 533.596 1211.76 532.157C1211.06 530.69 1210.03 529.632 1208.67 528.983C1207.32 528.306 1205.65 527.967 1203.68 527.967C1201.73 527.967 1199.96 528.377 1198.35 529.195C1196.77 530.013 1195.4 531.141 1194.24 532.58C1193.11 534.019 1192.23 535.669 1191.58 537.531C1190.96 539.365 1190.65 541.312 1190.65 543.371ZM1264.85 522.212H1271.96V567.027C1271.96 571.061 1271.14 574.503 1269.5 577.352C1267.87 580.202 1265.58 582.36 1262.65 583.827C1259.74 585.322 1256.38 586.07 1252.58 586.07C1251 586.07 1249.13 585.816 1246.99 585.308C1244.87 584.828 1242.79 583.996 1240.73 582.811C1238.69 581.655 1236.99 580.089 1235.61 578.114L1239.71 573.459C1241.63 575.772 1243.63 577.38 1245.72 578.283C1247.84 579.186 1249.92 579.637 1251.98 579.637C1254.47 579.637 1256.61 579.172 1258.41 578.241C1260.22 577.31 1261.62 575.928 1262.6 574.094C1263.62 572.288 1264.13 570.059 1264.13 567.408V532.284L1264.85 522.212ZM1233.32 545.614V544.725C1233.32 541.227 1233.73 538.053 1234.55 535.204C1235.39 532.326 1236.59 529.858 1238.14 527.798C1239.72 525.739 1241.63 524.159 1243.86 523.059C1246.09 521.93 1248.6 521.366 1251.39 521.366C1254.27 521.366 1256.78 521.874 1258.92 522.889C1261.09 523.877 1262.93 525.33 1264.42 527.248C1265.95 529.138 1267.15 531.423 1268.02 534.104C1268.9 536.784 1269.5 539.816 1269.84 543.202V547.095C1269.53 550.452 1268.92 553.471 1268.02 556.151C1267.15 558.831 1265.95 561.116 1264.42 563.007C1262.93 564.897 1261.09 566.35 1258.92 567.365C1256.75 568.353 1254.21 568.846 1251.31 568.846C1248.57 568.846 1246.09 568.268 1243.86 567.111C1241.66 565.955 1239.77 564.332 1238.19 562.245C1236.61 560.157 1235.39 557.703 1234.55 554.882C1233.73 552.032 1233.32 548.943 1233.32 545.614ZM1241.15 544.725V545.614C1241.15 547.899 1241.37 550.043 1241.83 552.046C1242.31 554.049 1243.03 555.812 1243.98 557.336C1244.97 558.859 1246.23 560.058 1247.75 560.933C1249.27 561.779 1251.09 562.202 1253.21 562.202C1255.81 562.202 1257.95 561.652 1259.64 560.552C1261.33 559.452 1262.67 557.999 1263.66 556.193C1264.68 554.388 1265.47 552.427 1266.03 550.311V540.113C1265.72 538.561 1265.24 537.066 1264.59 535.627C1263.97 534.16 1263.15 532.862 1262.14 531.734C1261.15 530.577 1259.92 529.66 1258.46 528.983C1256.99 528.306 1255.27 527.967 1253.29 527.967C1251.15 527.967 1249.3 528.419 1247.75 529.322C1246.23 530.196 1244.97 531.409 1243.98 532.961C1243.03 534.484 1242.31 536.262 1241.83 538.293C1241.37 540.296 1241.15 542.44 1241.15 544.725ZM1348.93 548.407H1357.05C1356.63 552.3 1355.51 555.784 1353.71 558.859C1351.9 561.934 1349.35 564.375 1346.05 566.18C1342.75 567.958 1338.63 568.846 1333.69 568.846C1330.08 568.846 1326.8 568.169 1323.83 566.815C1320.9 565.461 1318.37 563.543 1316.26 561.06C1314.14 558.549 1312.51 555.544 1311.35 552.046C1310.22 548.52 1309.66 544.598 1309.66 540.282V534.146C1309.66 529.829 1310.22 525.922 1311.35 522.424C1312.51 518.897 1314.16 515.879 1316.3 513.368C1318.47 510.857 1321.08 508.924 1324.13 507.57C1327.18 506.216 1330.6 505.539 1334.41 505.539C1339.07 505.539 1343 506.414 1346.22 508.163C1349.44 509.912 1351.93 512.338 1353.71 515.441C1355.51 518.516 1356.63 522.085 1357.05 526.148H1348.93C1348.53 523.27 1347.8 520.802 1346.73 518.742C1345.65 516.655 1344.13 515.046 1342.16 513.918C1340.18 512.789 1337.6 512.225 1334.41 512.225C1331.68 512.225 1329.26 512.747 1327.18 513.791C1325.12 514.835 1323.38 516.316 1321.97 518.234C1320.59 520.153 1319.54 522.452 1318.84 525.132C1318.13 527.812 1317.78 530.789 1317.78 534.061V540.282C1317.78 543.301 1318.09 546.136 1318.71 548.788C1319.36 551.44 1320.33 553.767 1321.63 555.77C1322.93 557.773 1324.58 559.353 1326.58 560.51C1328.59 561.638 1330.96 562.202 1333.69 562.202C1337.16 562.202 1339.93 561.652 1341.99 560.552C1344.05 559.452 1345.6 557.872 1346.64 555.812C1347.71 553.753 1348.48 551.285 1348.93 548.407ZM1396.6 560.171V536.6C1396.6 534.795 1396.23 533.229 1395.5 531.903C1394.79 530.549 1393.72 529.505 1392.28 528.771C1390.84 528.038 1389.06 527.671 1386.95 527.671C1384.97 527.671 1383.24 528.01 1381.74 528.687C1380.28 529.364 1379.12 530.253 1378.27 531.353C1377.45 532.453 1377.04 533.638 1377.04 534.908H1369.22C1369.22 533.271 1369.64 531.649 1370.49 530.041C1371.33 528.433 1372.55 526.98 1374.13 525.682C1375.73 524.356 1377.65 523.312 1379.88 522.551C1382.14 521.761 1384.65 521.366 1387.41 521.366C1390.74 521.366 1393.68 521.93 1396.21 523.059C1398.78 524.187 1400.79 525.894 1402.22 528.179C1403.69 530.436 1404.42 533.271 1404.42 536.685V558.013C1404.42 559.536 1404.55 561.159 1404.81 562.88C1405.09 564.6 1405.5 566.082 1406.03 567.323V568H1397.87C1397.47 567.097 1397.16 565.898 1396.93 564.403C1396.71 562.88 1396.6 561.469 1396.6 560.171ZM1397.95 540.24L1398.03 545.741H1390.12C1387.89 545.741 1385.9 545.924 1384.15 546.291C1382.41 546.63 1380.94 547.151 1379.75 547.857C1378.57 548.562 1377.67 549.451 1377.04 550.523C1376.42 551.567 1376.11 552.794 1376.11 554.204C1376.11 555.643 1376.44 556.955 1377.09 558.14C1377.74 559.325 1378.71 560.27 1380.01 560.975C1381.33 561.652 1382.96 561.991 1384.87 561.991C1387.27 561.991 1389.39 561.483 1391.22 560.467C1393.06 559.452 1394.51 558.211 1395.58 556.743C1396.68 555.276 1397.27 553.852 1397.36 552.469L1400.7 556.236C1400.5 557.421 1399.97 558.732 1399.09 560.171C1398.22 561.61 1397.05 562.992 1395.58 564.318C1394.14 565.616 1392.42 566.702 1390.42 567.577C1388.44 568.423 1386.21 568.846 1383.73 568.846C1380.63 568.846 1377.91 568.24 1375.56 567.027C1373.25 565.814 1371.44 564.191 1370.15 562.16C1368.88 560.101 1368.24 557.801 1368.24 555.262C1368.24 552.808 1368.72 550.65 1369.68 548.788C1370.64 546.898 1372.02 545.332 1373.83 544.09C1375.63 542.821 1377.81 541.862 1380.35 541.213C1382.88 540.564 1385.72 540.24 1388.85 540.24H1397.95ZM1419.3 503H1427.17V559.113L1426.49 568H1419.3V503ZM1458.1 544.725V545.614C1458.1 548.943 1457.71 552.032 1456.92 554.882C1456.13 557.703 1454.97 560.157 1453.45 562.245C1451.92 564.332 1450.06 565.955 1447.86 567.111C1445.66 568.268 1443.14 568.846 1440.29 568.846C1437.38 568.846 1434.83 568.353 1432.63 567.365C1430.45 566.35 1428.62 564.897 1427.13 563.007C1425.63 561.116 1424.43 558.831 1423.53 556.151C1422.65 553.471 1422.05 550.452 1421.71 547.095V543.202C1422.05 539.816 1422.65 536.784 1423.53 534.104C1424.43 531.423 1425.63 529.138 1427.13 527.248C1428.62 525.33 1430.45 523.877 1432.63 522.889C1434.8 521.874 1437.32 521.366 1440.2 521.366C1443.08 521.366 1445.63 521.93 1447.86 523.059C1450.09 524.159 1451.95 525.739 1453.45 527.798C1454.97 529.858 1456.13 532.326 1456.92 535.204C1457.71 538.053 1458.1 541.227 1458.1 544.725ZM1450.23 545.614V544.725C1450.23 542.44 1450.02 540.296 1449.6 538.293C1449.17 536.262 1448.5 534.484 1447.56 532.961C1446.63 531.409 1445.41 530.196 1443.88 529.322C1442.36 528.419 1440.48 527.967 1438.26 527.967C1436.28 527.967 1434.56 528.306 1433.09 528.983C1431.65 529.66 1430.43 530.577 1429.41 531.734C1428.39 532.862 1427.56 534.16 1426.91 535.627C1426.29 537.066 1425.83 538.561 1425.52 540.113V550.311C1425.97 552.286 1426.7 554.19 1427.72 556.024C1428.76 557.83 1430.14 559.311 1431.87 560.467C1433.61 561.624 1435.77 562.202 1438.34 562.202C1440.46 562.202 1442.26 561.779 1443.76 560.933C1445.28 560.058 1446.51 558.859 1447.44 557.336C1448.4 555.812 1449.1 554.049 1449.55 552.046C1450.01 550.043 1450.23 547.899 1450.23 545.614ZM1479.11 522.212V568H1471.24V522.212H1479.11ZM1470.65 510.067C1470.65 508.798 1471.03 507.725 1471.79 506.851C1472.58 505.976 1473.74 505.539 1475.26 505.539C1476.75 505.539 1477.9 505.976 1478.69 506.851C1479.51 507.725 1479.91 508.798 1479.91 510.067C1479.91 511.28 1479.51 512.324 1478.69 513.199C1477.9 514.045 1476.75 514.468 1475.26 514.468C1473.74 514.468 1472.58 514.045 1471.79 513.199C1471.03 512.324 1470.65 511.28 1470.65 510.067ZM1502.11 531.988V568H1494.28V522.212H1501.68L1502.11 531.988ZM1500.25 543.371L1496.99 543.244C1497.02 540.113 1497.48 537.221 1498.38 534.569C1499.29 531.889 1500.56 529.561 1502.19 527.587C1503.83 525.612 1505.77 524.088 1508.03 523.016C1510.32 521.916 1512.84 521.366 1515.61 521.366C1517.86 521.366 1519.89 521.676 1521.7 522.297C1523.51 522.889 1525.04 523.849 1526.31 525.174C1527.61 526.5 1528.6 528.221 1529.28 530.337C1529.95 532.425 1530.29 534.978 1530.29 537.997V568H1522.42V537.912C1522.42 535.514 1522.07 533.596 1521.36 532.157C1520.66 530.69 1519.63 529.632 1518.27 528.983C1516.92 528.306 1515.25 527.967 1513.28 527.967C1511.33 527.967 1509.56 528.377 1507.95 529.195C1506.37 530.013 1505 531.141 1503.84 532.58C1502.71 534.019 1501.83 535.669 1501.18 537.531C1500.56 539.365 1500.25 541.312 1500.25 543.371ZM1563.78 568.846C1560.59 568.846 1557.7 568.31 1555.11 567.238C1552.54 566.138 1550.33 564.6 1548.46 562.626C1546.63 560.651 1545.22 558.309 1544.23 555.601C1543.24 552.893 1542.75 549.93 1542.75 546.714V544.937C1542.75 541.213 1543.3 537.898 1544.4 534.992C1545.5 532.058 1547 529.576 1548.89 527.544C1550.78 525.513 1552.92 523.975 1555.32 522.932C1557.72 521.888 1560.2 521.366 1562.77 521.366C1566.04 521.366 1568.86 521.93 1571.23 523.059C1573.63 524.187 1575.59 525.767 1577.11 527.798C1578.64 529.801 1579.76 532.171 1580.5 534.908C1581.23 537.616 1581.6 540.578 1581.6 543.794V547.307H1547.41V540.917H1573.77V540.324C1573.66 538.293 1573.23 536.318 1572.5 534.4C1571.8 532.481 1570.67 530.901 1569.11 529.66C1567.56 528.419 1565.45 527.798 1562.77 527.798C1560.99 527.798 1559.35 528.179 1557.86 528.941C1556.36 529.674 1555.08 530.775 1554.01 532.242C1552.94 533.709 1552.1 535.5 1551.51 537.616C1550.92 539.732 1550.62 542.172 1550.62 544.937V546.714C1550.62 548.887 1550.92 550.932 1551.51 552.85C1552.13 554.74 1553.02 556.405 1554.18 557.844C1555.36 559.283 1556.79 560.411 1558.45 561.229C1560.14 562.047 1562.06 562.456 1564.21 562.456C1566.97 562.456 1569.31 561.892 1571.23 560.764C1573.15 559.635 1574.83 558.126 1576.27 556.236L1581.01 560.002C1580.02 561.497 1578.76 562.922 1577.24 564.276C1575.72 565.63 1573.84 566.73 1571.61 567.577C1569.41 568.423 1566.8 568.846 1563.78 568.846ZM1612.51 522.212V528.221H1587.75V522.212H1612.51ZM1596.13 511.083H1603.96V556.659C1603.96 558.211 1604.2 559.381 1604.68 560.171C1605.16 560.961 1605.78 561.483 1606.54 561.737C1607.3 561.991 1608.12 562.118 1609 562.118C1609.65 562.118 1610.32 562.061 1611.03 561.949C1611.76 561.808 1612.31 561.695 1612.68 561.61L1612.72 568C1612.1 568.197 1611.28 568.381 1610.27 568.55C1609.28 568.748 1608.08 568.846 1606.67 568.846C1604.75 568.846 1602.99 568.465 1601.38 567.704C1599.77 566.942 1598.49 565.673 1597.53 563.895C1596.6 562.09 1596.13 559.663 1596.13 556.617V511.083ZM1664.68 538.589V545.021H1644.03V538.589H1664.68ZM1737.42 548.407H1745.55C1745.12 552.3 1744.01 555.784 1742.2 558.859C1740.4 561.934 1737.84 564.375 1734.54 566.18C1731.24 567.958 1727.12 568.846 1722.19 568.846C1718.58 568.846 1715.29 568.169 1712.33 566.815C1709.39 565.461 1706.87 563.543 1704.75 561.06C1702.64 558.549 1701 555.544 1699.84 552.046C1698.71 548.52 1698.15 544.598 1698.15 540.282V534.146C1698.15 529.829 1698.71 525.922 1699.84 522.424C1701 518.897 1702.65 515.879 1704.79 513.368C1706.97 510.857 1709.58 508.924 1712.62 507.57C1715.67 506.216 1719.1 505.539 1722.91 505.539C1727.56 505.539 1731.5 506.414 1734.71 508.163C1737.93 509.912 1740.43 512.338 1742.2 515.441C1744.01 518.516 1745.12 522.085 1745.55 526.148H1737.42C1737.03 523.27 1736.29 520.802 1735.22 518.742C1734.15 516.655 1732.62 515.046 1730.65 513.918C1728.68 512.789 1726.09 512.225 1722.91 512.225C1720.17 512.225 1717.76 512.747 1715.67 513.791C1713.61 514.835 1711.88 516.316 1710.46 518.234C1709.08 520.153 1708.04 522.452 1707.33 525.132C1706.63 527.812 1706.28 530.789 1706.28 534.061V540.282C1706.28 543.301 1706.59 546.136 1707.21 548.788C1707.85 551.44 1708.83 553.767 1710.13 555.77C1711.42 557.773 1713.07 559.353 1715.08 560.51C1717.08 561.638 1719.45 562.202 1722.19 562.202C1725.66 562.202 1728.42 561.652 1730.48 560.552C1732.54 559.452 1734.09 557.872 1735.14 555.812C1736.21 553.753 1736.97 551.285 1737.42 548.407ZM1792.11 552.427C1792.11 550.988 1791.89 549.719 1791.44 548.618C1791.01 547.49 1790.25 546.474 1789.15 545.572C1788.08 544.669 1786.58 543.808 1784.67 542.99C1782.78 542.172 1780.38 541.34 1777.47 540.493C1774.43 539.591 1771.67 538.589 1769.22 537.489C1766.77 536.36 1764.66 535.077 1762.91 533.638C1761.17 532.199 1759.83 530.549 1758.89 528.687C1757.96 526.825 1757.5 524.695 1757.5 522.297C1757.5 519.899 1757.99 517.684 1758.98 515.653C1759.97 513.622 1761.38 511.859 1763.21 510.363C1765.07 508.84 1767.29 507.655 1769.85 506.809C1772.42 505.962 1775.29 505.539 1778.45 505.539C1783.07 505.539 1786.99 506.428 1790.21 508.205C1793.45 509.954 1795.92 512.253 1797.62 515.103C1799.31 517.924 1800.15 520.943 1800.15 524.159H1792.03C1792.03 521.845 1791.54 519.8 1790.55 518.023C1789.56 516.217 1788.07 514.807 1786.06 513.791C1784.06 512.747 1781.52 512.225 1778.45 512.225C1775.54 512.225 1773.14 512.663 1771.25 513.537C1769.36 514.412 1767.95 515.597 1767.02 517.092C1766.12 518.587 1765.67 520.294 1765.67 522.212C1765.67 523.51 1765.93 524.695 1766.47 525.767C1767.03 526.811 1767.89 527.784 1769.05 528.687C1770.24 529.59 1771.73 530.422 1773.54 531.184C1775.37 531.945 1777.56 532.679 1780.1 533.384C1783.59 534.372 1786.61 535.472 1789.15 536.685C1791.69 537.898 1793.78 539.266 1795.41 540.79C1797.08 542.285 1798.31 543.992 1799.1 545.91C1799.91 547.8 1800.32 549.944 1800.32 552.342C1800.32 554.853 1799.82 557.124 1798.8 559.156C1797.78 561.187 1796.33 562.922 1794.44 564.361C1792.55 565.799 1790.28 566.914 1787.63 567.704C1785 568.465 1782.07 568.846 1778.83 568.846C1775.98 568.846 1773.17 568.451 1770.41 567.661C1767.67 566.872 1765.17 565.687 1762.91 564.107C1760.69 562.527 1758.89 560.58 1757.54 558.267C1756.21 555.925 1755.55 553.217 1755.55 550.142H1763.68C1763.68 552.258 1764.09 554.077 1764.9 555.601C1765.72 557.096 1766.84 558.337 1768.25 559.325C1769.69 560.312 1771.31 561.046 1773.11 561.525C1774.95 561.977 1776.85 562.202 1778.83 562.202C1781.68 562.202 1784.09 561.808 1786.06 561.018C1788.04 560.228 1789.53 559.099 1790.55 557.632C1791.59 556.165 1792.11 554.43 1792.11 552.427ZM1853.58 532.876V539.52H1820.23V532.876H1853.58ZM1821.5 506.385V568H1813.33V506.385H1821.5ZM1860.69 506.385V568H1852.56V506.385H1860.69ZM1910.66 506.385V568H1902.49V506.385H1910.66ZM1934.71 531.311V568H1926.84V522.212H1934.29L1934.71 531.311ZM1933.11 543.371L1929.47 543.244C1929.5 540.113 1929.9 537.221 1930.69 534.569C1931.48 531.889 1932.66 529.561 1934.21 527.587C1935.76 525.612 1937.69 524.088 1940 523.016C1942.32 521.916 1945 521.366 1948.04 521.366C1950.19 521.366 1952.16 521.676 1953.97 522.297C1955.77 522.889 1957.34 523.834 1958.67 525.132C1959.99 526.43 1961.02 528.094 1961.76 530.126C1962.49 532.157 1962.86 534.611 1962.86 537.489V568H1955.03V537.87C1955.03 535.472 1954.62 533.553 1953.8 532.115C1953.01 530.676 1951.88 529.632 1950.41 528.983C1948.95 528.306 1947.23 527.967 1945.25 527.967C1942.94 527.967 1941.01 528.377 1939.45 529.195C1937.9 530.013 1936.66 531.141 1935.73 532.58C1934.8 534.019 1934.12 535.669 1933.7 537.531C1933.3 539.365 1933.11 541.312 1933.11 543.371ZM1962.77 539.055L1957.52 540.663C1957.55 538.152 1957.96 535.74 1958.75 533.426C1959.57 531.113 1960.74 529.054 1962.26 527.248C1963.82 525.442 1965.72 524.018 1967.98 522.974C1970.23 521.902 1972.81 521.366 1975.72 521.366C1978.17 521.366 1980.35 521.69 1982.24 522.339C1984.16 522.988 1985.76 523.99 1987.06 525.344C1988.39 526.67 1989.39 528.377 1990.07 530.464C1990.74 532.552 1991.08 535.035 1991.08 537.912V568H1983.21V537.827C1983.21 535.26 1982.8 533.271 1981.98 531.861C1981.19 530.422 1980.07 529.42 1978.6 528.856C1977.16 528.264 1975.44 527.967 1973.44 527.967C1971.71 527.967 1970.19 528.264 1968.86 528.856C1967.54 529.449 1966.42 530.267 1965.52 531.311C1964.62 532.326 1963.93 533.497 1963.45 534.823C1963 536.149 1962.77 537.559 1962.77 539.055ZM2032.53 560.171V536.6C2032.53 534.795 2032.16 533.229 2031.43 531.903C2030.72 530.549 2029.65 529.505 2028.21 528.771C2026.77 528.038 2025 527.671 2022.88 527.671C2020.91 527.671 2019.17 528.01 2017.68 528.687C2016.21 529.364 2015.05 530.253 2014.21 531.353C2013.39 532.453 2012.98 533.638 2012.98 534.908H2005.15C2005.15 533.271 2005.57 531.649 2006.42 530.041C2007.27 528.433 2008.48 526.98 2010.06 525.682C2011.67 524.356 2013.59 523.312 2015.81 522.551C2018.07 521.761 2020.58 521.366 2023.35 521.366C2026.68 521.366 2029.61 521.93 2032.15 523.059C2034.72 524.187 2036.72 525.894 2038.16 528.179C2039.62 530.436 2040.36 533.271 2040.36 536.685V558.013C2040.36 559.536 2040.49 561.159 2040.74 562.88C2041.02 564.6 2041.43 566.082 2041.97 567.323V568H2033.8C2033.4 567.097 2033.09 565.898 2032.87 564.403C2032.64 562.88 2032.53 561.469 2032.53 560.171ZM2033.88 540.24L2033.97 545.741H2026.05C2023.83 545.741 2021.84 545.924 2020.09 546.291C2018.34 546.63 2016.87 547.151 2015.69 547.857C2014.5 548.562 2013.6 549.451 2012.98 550.523C2012.36 551.567 2012.05 552.794 2012.05 554.204C2012.05 555.643 2012.37 556.955 2013.02 558.14C2013.67 559.325 2014.64 560.27 2015.94 560.975C2017.27 561.652 2018.89 561.991 2020.81 561.991C2023.21 561.991 2025.32 561.483 2027.15 560.467C2028.99 559.452 2030.44 558.211 2031.51 556.743C2032.61 555.276 2033.21 553.852 2033.29 552.469L2036.63 556.236C2036.44 557.421 2035.9 558.732 2035.03 560.171C2034.15 561.61 2032.98 562.992 2031.51 564.318C2030.07 565.616 2028.35 566.702 2026.35 567.577C2024.38 568.423 2022.15 568.846 2019.66 568.846C2016.56 568.846 2013.84 568.24 2011.5 567.027C2009.18 565.814 2007.38 564.191 2006.08 562.16C2004.81 560.101 2004.18 557.801 2004.18 555.262C2004.18 552.808 2004.66 550.65 2005.62 548.788C2006.57 546.898 2007.96 545.332 2009.76 544.09C2011.57 542.821 2013.74 541.862 2016.28 541.213C2018.82 540.564 2021.65 540.24 2024.79 540.24H2033.88ZM2084.94 522.212H2092.05V567.027C2092.05 571.061 2091.23 574.503 2089.59 577.352C2087.96 580.202 2085.67 582.36 2082.74 583.827C2079.83 585.322 2076.47 586.07 2072.67 586.07C2071.09 586.07 2069.22 585.816 2067.08 585.308C2064.96 584.828 2062.88 583.996 2060.82 582.811C2058.78 581.655 2057.08 580.089 2055.7 578.114L2059.8 573.459C2061.72 575.772 2063.72 577.38 2065.81 578.283C2067.93 579.186 2070.01 579.637 2072.07 579.637C2074.56 579.637 2076.7 579.172 2078.51 578.241C2080.31 577.31 2081.71 575.928 2082.69 574.094C2083.71 572.288 2084.22 570.059 2084.22 567.408V532.284L2084.94 522.212ZM2053.41 545.614V544.725C2053.41 541.227 2053.82 538.053 2054.64 535.204C2055.48 532.326 2056.68 529.858 2058.23 527.798C2059.81 525.739 2061.72 524.159 2063.95 523.059C2066.18 521.93 2068.69 521.366 2071.48 521.366C2074.36 521.366 2076.87 521.874 2079.01 522.889C2081.19 523.877 2083.02 525.33 2084.51 527.248C2086.04 529.138 2087.24 531.423 2088.11 534.104C2088.99 536.784 2089.59 539.816 2089.93 543.202V547.095C2089.62 550.452 2089.01 553.471 2088.11 556.151C2087.24 558.831 2086.04 561.116 2084.51 563.007C2083.02 564.897 2081.19 566.35 2079.01 567.365C2076.84 568.353 2074.3 568.846 2071.4 568.846C2068.66 568.846 2066.18 568.268 2063.95 567.111C2061.75 565.955 2059.86 564.332 2058.28 562.245C2056.7 560.157 2055.48 557.703 2054.64 554.882C2053.82 552.032 2053.41 548.943 2053.41 545.614ZM2061.24 544.725V545.614C2061.24 547.899 2061.47 550.043 2061.92 552.046C2062.4 554.049 2063.12 555.812 2064.07 557.336C2065.06 558.859 2066.32 560.058 2067.84 560.933C2069.36 561.779 2071.18 562.202 2073.3 562.202C2075.9 562.202 2078.04 561.652 2079.73 560.552C2081.42 559.452 2082.76 557.999 2083.75 556.193C2084.77 554.388 2085.56 552.427 2086.12 550.311V540.113C2085.81 538.561 2085.33 537.066 2084.68 535.627C2084.06 534.16 2083.24 532.862 2082.23 531.734C2081.24 530.577 2080.01 529.66 2078.55 528.983C2077.08 528.306 2075.36 527.967 2073.38 527.967C2071.24 527.967 2069.39 528.419 2067.84 529.322C2066.32 530.196 2065.06 531.409 2064.07 532.961C2063.12 534.484 2062.4 536.262 2061.92 538.293C2061.47 540.296 2061.24 542.44 2061.24 544.725ZM2115.04 522.212V568H2107.17V522.212H2115.04ZM2106.58 510.067C2106.58 508.798 2106.96 507.725 2107.72 506.851C2108.51 505.976 2109.67 505.539 2111.19 505.539C2112.69 505.539 2113.83 505.976 2114.62 506.851C2115.44 507.725 2115.85 508.798 2115.85 510.067C2115.85 511.28 2115.44 512.324 2114.62 513.199C2113.83 514.045 2112.69 514.468 2111.19 514.468C2109.67 514.468 2108.51 514.045 2107.72 513.199C2106.96 512.324 2106.58 511.28 2106.58 510.067ZM2138.04 531.988V568H2130.21V522.212H2137.62L2138.04 531.988ZM2136.18 543.371L2132.92 543.244C2132.95 540.113 2133.41 537.221 2134.32 534.569C2135.22 531.889 2136.49 529.561 2138.13 527.587C2139.76 525.612 2141.71 524.088 2143.97 523.016C2146.25 521.916 2148.78 521.366 2151.54 521.366C2153.8 521.366 2155.83 521.676 2157.63 522.297C2159.44 522.889 2160.98 523.849 2162.25 525.174C2163.54 526.5 2164.53 528.221 2165.21 530.337C2165.89 532.425 2166.22 534.978 2166.22 537.997V568H2158.35V537.912C2158.35 535.514 2158 533.596 2157.3 532.157C2156.59 530.69 2155.56 529.632 2154.21 528.983C2152.85 528.306 2151.19 527.967 2149.21 527.967C2147.27 527.967 2145.49 528.377 2143.88 529.195C2142.3 530.013 2140.93 531.141 2139.78 532.58C2138.65 534.019 2137.76 535.669 2137.11 537.531C2136.49 539.365 2136.18 541.312 2136.18 543.371ZM2199.72 568.846C2196.53 568.846 2193.64 568.31 2191.04 567.238C2188.47 566.138 2186.26 564.6 2184.4 562.626C2182.56 560.651 2181.15 558.309 2180.17 555.601C2179.18 552.893 2178.68 549.93 2178.68 546.714V544.937C2178.68 541.213 2179.23 537.898 2180.33 534.992C2181.44 532.058 2182.93 529.576 2184.82 527.544C2186.71 525.513 2188.85 523.975 2191.25 522.932C2193.65 521.888 2196.13 521.366 2198.7 521.366C2201.97 521.366 2204.79 521.93 2207.16 523.059C2209.56 524.187 2211.52 525.767 2213.05 527.798C2214.57 529.801 2215.7 532.171 2216.43 534.908C2217.17 537.616 2217.53 540.578 2217.53 543.794V547.307H2183.34V540.917H2209.7V540.324C2209.59 538.293 2209.17 536.318 2208.43 534.4C2207.73 532.481 2206.6 530.901 2205.05 529.66C2203.5 528.419 2201.38 527.798 2198.7 527.798C2196.92 527.798 2195.29 528.179 2193.79 528.941C2192.3 529.674 2191.01 530.775 2189.94 532.242C2188.87 533.709 2188.04 535.5 2187.44 537.616C2186.85 539.732 2186.56 542.172 2186.56 544.937V546.714C2186.56 548.887 2186.85 550.932 2187.44 552.85C2188.06 554.74 2188.95 556.405 2190.11 557.844C2191.3 559.283 2192.72 560.411 2194.38 561.229C2196.08 562.047 2198 562.456 2200.14 562.456C2202.9 562.456 2205.25 561.892 2207.16 560.764C2209.08 559.635 2210.76 558.126 2212.2 556.236L2216.94 560.002C2215.95 561.497 2214.7 562.922 2213.17 564.276C2211.65 565.63 2209.77 566.73 2207.55 567.577C2205.34 568.423 2202.74 568.846 2199.72 568.846ZM2254.56 506.385H2274.95C2279.58 506.385 2283.49 507.091 2286.67 508.501C2289.89 509.912 2292.33 512 2294 514.764C2295.69 517.501 2296.53 520.872 2296.53 524.878C2296.53 527.699 2295.96 530.281 2294.8 532.622C2293.67 534.936 2292.03 536.911 2289.89 538.547C2287.77 540.155 2285.24 541.354 2282.27 542.144L2279.99 543.033H2260.82L2260.73 536.389H2275.21C2278.14 536.389 2280.58 535.881 2282.53 534.865C2284.47 533.821 2285.94 532.425 2286.93 530.676C2287.92 528.927 2288.41 526.994 2288.41 524.878C2288.41 522.508 2287.94 520.435 2287.01 518.658C2286.08 516.88 2284.61 515.512 2282.61 514.553C2280.64 513.565 2278.08 513.072 2274.95 513.072H2262.72V568H2254.56V506.385ZM2290.57 568L2275.59 540.07L2284.09 540.028L2299.28 567.492V568H2290.57ZM2319.32 506.385V568H2311.15V506.385H2319.32ZM2358.27 506.385V568H2350.23V506.385H2358.27ZM2378.08 506.385V513.072H2330.47V506.385H2378.08ZM2434.95 543.837H2418.48V537.193H2434.95C2438.13 537.193 2440.71 536.685 2442.69 535.669C2444.66 534.654 2446.1 533.243 2447.01 531.437C2447.94 529.632 2448.4 527.572 2448.4 525.259C2448.4 523.143 2447.94 521.154 2447.01 519.292C2446.1 517.43 2444.66 515.935 2442.69 514.807C2440.71 513.65 2438.13 513.072 2434.95 513.072H2420.39V568H2412.22V506.385H2434.95C2439.6 506.385 2443.54 507.189 2446.75 508.798C2449.97 510.406 2452.41 512.634 2454.07 515.484C2455.74 518.305 2456.57 521.535 2456.57 525.174C2456.57 529.124 2455.74 532.495 2454.07 535.288C2452.41 538.081 2449.97 540.211 2446.75 541.678C2443.54 543.117 2439.6 543.837 2434.95 543.837ZM2476.14 529.406V568H2468.31V522.212H2475.93L2476.14 529.406ZM2490.44 521.958L2490.4 529.237C2489.75 529.096 2489.13 529.011 2488.54 528.983C2487.97 528.927 2487.33 528.898 2486.59 528.898C2484.79 528.898 2483.19 529.181 2481.81 529.745C2480.43 530.309 2479.26 531.099 2478.3 532.115C2477.34 533.13 2476.58 534.343 2476.01 535.754C2475.48 537.136 2475.12 538.66 2474.95 540.324L2472.75 541.594C2472.75 538.829 2473.02 536.234 2473.56 533.807C2474.12 531.381 2474.98 529.237 2476.14 527.375C2477.3 525.485 2478.76 524.018 2480.54 522.974C2482.35 521.902 2484.49 521.366 2486.97 521.366C2487.54 521.366 2488.19 521.436 2488.92 521.577C2489.65 521.69 2490.16 521.817 2490.44 521.958ZM2497.36 545.614V544.641C2497.36 541.34 2497.84 538.279 2498.8 535.458C2499.76 532.608 2501.14 530.14 2502.94 528.052C2504.75 525.936 2506.94 524.3 2509.5 523.143C2512.07 521.958 2514.95 521.366 2518.14 521.366C2521.35 521.366 2524.24 521.958 2526.81 523.143C2529.41 524.3 2531.61 525.936 2533.41 528.052C2535.25 530.14 2536.64 532.608 2537.6 535.458C2538.56 538.279 2539.04 541.34 2539.04 544.641V545.614C2539.04 548.915 2538.56 551.976 2537.6 554.797C2536.64 557.618 2535.25 560.087 2533.41 562.202C2531.61 564.29 2529.42 565.926 2526.85 567.111C2524.32 568.268 2521.44 568.846 2518.22 568.846C2515.01 568.846 2512.11 568.268 2509.55 567.111C2506.98 565.926 2504.78 564.29 2502.94 562.202C2501.14 560.087 2499.76 557.618 2498.8 554.797C2497.84 551.976 2497.36 548.915 2497.36 545.614ZM2505.19 544.641V545.614C2505.19 547.899 2505.46 550.057 2505.99 552.089C2506.53 554.092 2507.33 555.869 2508.4 557.421C2509.5 558.972 2510.87 560.199 2512.51 561.102C2514.14 561.977 2516.05 562.414 2518.22 562.414C2520.37 562.414 2522.24 561.977 2523.85 561.102C2525.49 560.199 2526.84 558.972 2527.91 557.421C2528.98 555.869 2529.79 554.092 2530.32 552.089C2530.89 550.057 2531.17 547.899 2531.17 545.614V544.641C2531.17 542.384 2530.89 540.254 2530.32 538.251C2529.79 536.219 2528.97 534.428 2527.87 532.876C2526.8 531.296 2525.44 530.055 2523.81 529.152C2522.2 528.25 2520.31 527.798 2518.14 527.798C2515.99 527.798 2514.1 528.25 2512.47 529.152C2510.86 530.055 2509.5 531.296 2508.4 532.876C2507.33 534.428 2506.53 536.219 2505.99 538.251C2505.46 540.254 2505.19 542.384 2505.19 544.641ZM2551.67 522.212H2559.54V573.459C2559.54 576.252 2559.09 578.622 2558.19 580.568C2557.31 582.515 2555.99 583.982 2554.21 584.969C2552.46 585.985 2550.25 586.493 2547.57 586.493C2546.86 586.493 2546.04 586.422 2545.11 586.281C2544.15 586.14 2543.35 585.971 2542.7 585.773L2542.74 579.468C2543.28 579.581 2543.88 579.666 2544.56 579.722C2545.24 579.807 2545.83 579.849 2546.34 579.849C2547.5 579.849 2548.47 579.637 2549.26 579.214C2550.05 578.791 2550.64 578.114 2551.04 577.183C2551.46 576.252 2551.67 575.011 2551.67 573.459V522.212ZM2550.87 510.067C2550.87 508.798 2551.26 507.725 2552.05 506.851C2552.84 505.976 2553.98 505.539 2555.48 505.539C2557 505.539 2558.16 505.976 2558.95 506.851C2559.74 507.725 2560.13 508.798 2560.13 510.067C2560.13 511.28 2559.74 512.324 2558.95 513.199C2558.16 514.045 2557 514.468 2555.48 514.468C2553.98 514.468 2552.84 514.045 2552.05 513.199C2551.26 512.324 2550.87 511.28 2550.87 510.067ZM2593.8 568.846C2590.61 568.846 2587.72 568.31 2585.12 567.238C2582.55 566.138 2580.34 564.6 2578.48 562.626C2576.64 560.651 2575.23 558.309 2574.25 555.601C2573.26 552.893 2572.76 549.93 2572.76 546.714V544.937C2572.76 541.213 2573.31 537.898 2574.41 534.992C2575.51 532.058 2577.01 529.576 2578.9 527.544C2580.79 525.513 2582.93 523.975 2585.33 522.932C2587.73 521.888 2590.21 521.366 2592.78 521.366C2596.05 521.366 2598.87 521.93 2601.24 523.059C2603.64 524.187 2605.6 525.767 2607.13 527.798C2608.65 529.801 2609.78 532.171 2610.51 534.908C2611.24 537.616 2611.61 540.578 2611.61 543.794V547.307H2577.42V540.917H2603.78V540.324C2603.67 538.293 2603.25 536.318 2602.51 534.4C2601.81 532.481 2600.68 530.901 2599.13 529.66C2597.58 528.419 2595.46 527.798 2592.78 527.798C2591 527.798 2589.37 528.179 2587.87 528.941C2586.38 529.674 2585.09 530.775 2584.02 532.242C2582.95 533.709 2582.12 535.5 2581.52 537.616C2580.93 539.732 2580.64 542.172 2580.64 544.937V546.714C2580.64 548.887 2580.93 550.932 2581.52 552.85C2582.14 554.74 2583.03 556.405 2584.19 557.844C2585.37 559.283 2586.8 560.411 2588.46 561.229C2590.16 562.047 2592.08 562.456 2594.22 562.456C2596.98 562.456 2599.33 561.892 2601.24 560.764C2603.16 559.635 2604.84 558.126 2606.28 556.236L2611.02 560.002C2610.03 561.497 2608.78 562.922 2607.25 564.276C2605.73 565.63 2603.85 566.73 2601.62 567.577C2599.42 568.423 2596.81 568.846 2593.8 568.846ZM2641.68 562.414C2643.54 562.414 2645.26 562.033 2646.84 561.271C2648.42 560.51 2649.72 559.466 2650.73 558.14C2651.75 556.786 2652.33 555.248 2652.47 553.527H2659.91C2659.77 556.236 2658.86 558.761 2657.16 561.102C2655.5 563.416 2653.31 565.292 2650.6 566.73C2647.9 568.141 2644.92 568.846 2641.68 568.846C2638.23 568.846 2635.23 568.24 2632.66 567.027C2630.12 565.814 2628.01 564.149 2626.31 562.033C2624.65 559.917 2623.39 557.491 2622.55 554.755C2621.73 551.99 2621.32 549.07 2621.32 545.995V544.217C2621.32 541.142 2621.73 538.237 2622.55 535.5C2623.39 532.735 2624.65 530.295 2626.31 528.179C2628.01 526.063 2630.12 524.399 2632.66 523.186C2635.23 521.972 2638.23 521.366 2641.68 521.366C2645.26 521.366 2648.39 522.099 2651.07 523.566C2653.75 525.005 2655.85 526.98 2657.38 529.491C2658.93 531.974 2659.77 534.795 2659.91 537.954H2652.47C2652.33 536.064 2651.79 534.357 2650.86 532.834C2649.96 531.311 2648.71 530.097 2647.13 529.195C2645.58 528.264 2643.76 527.798 2641.68 527.798C2639.28 527.798 2637.26 528.278 2635.62 529.237C2634.02 530.168 2632.73 531.437 2631.77 533.046C2630.84 534.625 2630.17 536.389 2629.74 538.335C2629.35 540.254 2629.15 542.214 2629.15 544.217V545.995C2629.15 547.998 2629.35 549.973 2629.74 551.919C2630.14 553.866 2630.8 555.629 2631.73 557.209C2632.69 558.789 2633.97 560.058 2635.58 561.018C2637.22 561.949 2639.25 562.414 2641.68 562.414ZM2690.49 522.212V528.221H2665.73V522.212H2690.49ZM2674.11 511.083H2681.94V556.659C2681.94 558.211 2682.18 559.381 2682.66 560.171C2683.14 560.961 2683.76 561.483 2684.52 561.737C2685.28 561.991 2686.1 562.118 2686.97 562.118C2687.62 562.118 2688.3 562.061 2689.01 561.949C2689.74 561.808 2690.29 561.695 2690.66 561.61L2690.7 568C2690.08 568.197 2689.26 568.381 2688.24 568.55C2687.26 568.748 2686.06 568.846 2684.65 568.846C2682.73 568.846 2680.97 568.465 2679.36 567.704C2677.75 566.942 2676.47 565.673 2675.51 563.895C2674.58 562.09 2674.11 559.663 2674.11 556.617V511.083ZM2765.89 561.568V568H2725.56V562.372L2745.75 539.901C2748.23 537.136 2750.15 534.795 2751.5 532.876C2752.89 530.93 2753.85 529.195 2754.38 527.671C2754.95 526.12 2755.23 524.54 2755.23 522.932C2755.23 520.9 2754.8 519.067 2753.96 517.43C2753.14 515.766 2751.93 514.44 2750.32 513.452C2748.71 512.465 2746.76 511.971 2744.48 511.971C2741.74 511.971 2739.46 512.507 2737.62 513.579C2735.82 514.623 2734.46 516.09 2733.56 517.98C2732.66 519.871 2732.21 522.043 2732.21 524.497H2724.38C2724.38 521.027 2725.14 517.854 2726.66 514.976C2728.19 512.098 2730.44 509.813 2733.43 508.12C2736.42 506.4 2740.11 505.539 2744.48 505.539C2748.37 505.539 2751.7 506.23 2754.47 507.613C2757.23 508.967 2759.35 510.885 2760.81 513.368C2762.31 515.822 2763.06 518.7 2763.06 522.001C2763.06 523.806 2762.75 525.64 2762.13 527.502C2761.53 529.336 2760.7 531.169 2759.63 533.003C2758.59 534.837 2757.36 536.643 2755.95 538.42C2754.56 540.197 2753.08 541.946 2751.5 543.667L2735 561.568H2765.89ZM2815.55 532.284V541.678C2815.55 546.728 2815.1 550.988 2814.2 554.458C2813.29 557.928 2811.99 560.721 2810.3 562.837C2808.61 564.953 2806.56 566.491 2804.17 567.45C2801.8 568.381 2799.12 568.846 2796.13 568.846C2793.76 568.846 2791.57 568.55 2789.57 567.958C2787.56 567.365 2785.76 566.42 2784.15 565.122C2782.57 563.796 2781.22 562.076 2780.09 559.96C2778.96 557.844 2778.1 555.276 2777.51 552.258C2776.91 549.239 2776.62 545.713 2776.62 541.678V532.284C2776.62 527.234 2777.07 523.002 2777.97 519.589C2778.9 516.175 2780.21 513.438 2781.91 511.379C2783.6 509.291 2785.63 507.796 2788 506.893C2790.4 505.99 2793.08 505.539 2796.04 505.539C2798.44 505.539 2800.64 505.835 2802.64 506.428C2804.67 506.992 2806.48 507.909 2808.06 509.178C2809.64 510.42 2810.98 512.084 2812.08 514.172C2813.21 516.231 2814.07 518.756 2814.66 521.747C2815.25 524.737 2815.55 528.25 2815.55 532.284ZM2807.68 542.948V530.972C2807.68 528.207 2807.51 525.781 2807.17 523.693C2806.86 521.577 2806.39 519.772 2805.77 518.277C2805.15 516.781 2804.36 515.568 2803.4 514.637C2802.47 513.706 2801.39 513.029 2800.15 512.606C2798.93 512.155 2797.56 511.929 2796.04 511.929C2794.18 511.929 2792.53 512.282 2791.09 512.987C2789.65 513.664 2788.44 514.75 2787.45 516.245C2786.49 517.741 2785.76 519.701 2785.25 522.128C2784.74 524.554 2784.49 527.502 2784.49 530.972V542.948C2784.49 545.713 2784.64 548.153 2784.95 550.269C2785.29 552.385 2785.79 554.219 2786.43 555.77C2787.08 557.294 2787.87 558.549 2788.8 559.536C2789.74 560.524 2790.81 561.257 2792.02 561.737C2793.26 562.188 2794.63 562.414 2796.13 562.414C2798.04 562.414 2799.72 562.047 2801.16 561.314C2802.6 560.58 2803.8 559.438 2804.76 557.886C2805.75 556.306 2806.48 554.289 2806.96 551.835C2807.44 549.352 2807.68 546.39 2807.68 542.948ZM2868.59 561.568V568H2828.26V562.372L2848.45 539.901C2850.93 537.136 2852.85 534.795 2854.2 532.876C2855.59 530.93 2856.55 529.195 2857.08 527.671C2857.65 526.12 2857.93 524.54 2857.93 522.932C2857.93 520.9 2857.5 519.067 2856.66 517.43C2855.84 515.766 2854.63 514.44 2853.02 513.452C2851.41 512.465 2849.46 511.971 2847.18 511.971C2844.44 511.971 2842.16 512.507 2840.32 513.579C2838.52 514.623 2837.16 516.09 2836.26 517.98C2835.36 519.871 2834.91 522.043 2834.91 524.497H2827.08C2827.08 521.027 2827.84 517.854 2829.36 514.976C2830.89 512.098 2833.14 509.813 2836.13 508.12C2839.12 506.4 2842.81 505.539 2847.18 505.539C2851.07 505.539 2854.4 506.23 2857.17 507.613C2859.93 508.967 2862.05 510.885 2863.51 513.368C2865.01 515.822 2865.76 518.7 2865.76 522.001C2865.76 523.806 2865.45 525.64 2864.83 527.502C2864.23 529.336 2863.4 531.169 2862.33 533.003C2861.29 534.837 2860.06 536.643 2858.65 538.42C2857.26 540.197 2855.78 541.946 2854.2 543.667L2837.7 561.568H2868.59ZM2889.47 538.674L2883.21 537.066L2886.3 506.385H2917.91V513.622H2892.94L2891.08 530.38C2892.21 529.731 2893.63 529.124 2895.36 528.56C2897.1 527.996 2899.11 527.714 2901.36 527.714C2904.21 527.714 2906.77 528.207 2909.02 529.195C2911.28 530.154 2913.2 531.536 2914.78 533.342C2916.39 535.147 2917.61 537.32 2918.46 539.859C2919.31 542.398 2919.73 545.233 2919.73 548.365C2919.73 551.327 2919.32 554.049 2918.5 556.532C2917.71 559.015 2916.51 561.187 2914.91 563.049C2913.3 564.883 2911.27 566.307 2908.81 567.323C2906.39 568.339 2903.52 568.846 2900.22 568.846C2897.74 568.846 2895.38 568.508 2893.15 567.831C2890.95 567.125 2888.98 566.067 2887.23 564.657C2885.51 563.218 2884.1 561.441 2883 559.325C2881.93 557.181 2881.25 554.67 2880.97 551.792H2888.42C2888.75 554.106 2889.43 556.052 2890.45 557.632C2891.46 559.212 2892.79 560.411 2894.42 561.229C2896.09 562.019 2898.02 562.414 2900.22 562.414C2902.08 562.414 2903.73 562.09 2905.17 561.441C2906.61 560.792 2907.83 559.861 2908.81 558.648C2909.8 557.435 2910.55 555.968 2911.06 554.247C2911.59 552.526 2911.86 550.593 2911.86 548.449C2911.86 546.503 2911.59 544.697 2911.06 543.033C2910.52 541.368 2909.72 539.915 2908.64 538.674C2907.6 537.433 2906.32 536.473 2904.79 535.796C2903.27 535.091 2901.52 534.738 2899.54 534.738C2896.92 534.738 2894.93 535.091 2893.58 535.796C2892.25 536.502 2890.88 537.461 2889.47 538.674Z" fill="black"/>
</svg>
