<svg width="242" height="59" viewBox="0 0 242 59" fill="none" xmlns="http://www.w3.org/2000/svg">
<path d="M43.7627 0C54.9454 0.0278329 64 7.47105 64 16.6484C64 21.6565 61.3032 26.1474 57.0361 29.1992C61.3033 32.2513 64 36.7429 64 41.751C63.9997 50.9282 54.9452 58.3706 43.7627 58.3984V58.3994H3.1123C1.39381 58.3994 0.000203121 57.0056 0 55.2871V3.1123C0 1.39369 1.39369 0 3.1123 0H43.7627Z" fill="#F76902"/>
<path d="M24.8418 19.1553C24.8085 19.3867 24.791 19.6236 24.791 19.8643C24.7912 22.5852 26.9968 24.791 29.7178 24.791C32.4388 24.791 34.6444 22.5852 34.6445 19.8643C34.6445 17.1431 32.4389 14.9365 29.7178 14.9365C29.3543 14.9365 29.0002 14.9771 28.6592 15.0518L13.6074 0H35.8896C45.0605 0.0277904 52.4863 7.47102 52.4863 16.6484C52.4862 21.6564 50.2747 26.1475 46.7754 29.1992C50.2748 32.2513 52.4863 36.743 52.4863 41.751C52.486 50.9281 45.0604 58.3706 35.8896 58.3984V58.3994H3.1123C1.39386 58.3994 0.000281189 57.0055 0 55.2871V3.1123C0 1.39369 1.39369 0 3.1123 0H5.68652L24.8418 19.1553ZM17.1885 27.3857C16.3901 26.5781 15.1823 26.3322 14.1318 26.7637C13.0814 27.1952 12.3956 28.2189 12.3955 29.3545V58.3984H17.9971V36.1719L24.9092 43.165C24.8322 43.5111 24.791 43.871 24.791 44.2402C24.7911 46.9612 26.9967 49.167 29.7178 49.167C32.4388 49.167 34.6444 46.9613 34.6445 44.2402C34.6445 41.5191 32.4389 39.3125 29.7178 39.3125C29.4834 39.3125 29.253 39.3297 29.0273 39.3613L17.1885 27.3857Z" fill="#6C0164"/>
<path d="M73.1767 9.63041H80.1026C82.0437 9.63041 83.5231 10.1016 84.5408 11.0438C85.5773 11.9861 86.0956 13.2677 86.0956 14.8884C86.0956 16.0192 85.8129 16.9238 85.2475 17.6022C84.701 18.2618 83.9094 18.7424 82.8729 19.0439V19.2135C84.0979 19.5151 85.0402 20.0428 85.6998 20.7966C86.3783 21.5504 86.7175 22.5964 86.7175 23.9344C86.7175 25.5929 86.1898 26.9121 85.1344 27.8921C84.0979 28.8721 82.6373 29.3621 80.7528 29.3621H73.1767V9.63041ZM79.4524 26.3938C80.4701 26.3938 81.2145 26.2242 81.6856 25.885C82.1568 25.5458 82.3923 24.9239 82.3923 24.0192V23.1995C82.3923 22.2948 82.1568 21.6729 81.6856 21.3337C81.2145 20.9945 80.4701 20.8249 79.4524 20.8249H77.304V26.3938H79.4524ZM78.9153 17.998C79.9141 17.998 80.6397 17.8378 81.092 17.5174C81.5443 17.1782 81.7704 16.5751 81.7704 15.7082V14.8601C81.7704 13.9932 81.5443 13.3996 81.092 13.0792C80.6397 12.7588 79.9141 12.5986 78.9153 12.5986H77.304V17.998H78.9153ZM95.9221 12.9096C94.9798 12.9096 94.3202 12.7211 93.9433 12.3442C93.5852 11.9485 93.4062 11.4773 93.4062 10.9308V10.111C93.4062 9.5456 93.5852 9.07445 93.9433 8.69753C94.3202 8.32061 94.9798 8.13216 95.9221 8.13216C96.8644 8.13216 97.5146 8.32061 97.8726 8.69753C98.2495 9.07445 98.438 9.5456 98.438 10.111V10.9308C98.438 11.4773 98.2495 11.9485 97.8726 12.3442C97.5146 12.7211 96.8644 12.9096 95.9221 12.9096ZM89.1941 26.1111H93.8302V18.0263H89.1941V14.7753H98.014V26.1111H102.311V29.3621H89.1941V26.1111ZM111.685 29.3621C110.177 29.3621 109.056 28.9663 108.321 28.1748C107.586 27.3832 107.219 26.375 107.219 25.15V18.0263H103.261V14.7753H105.833C106.455 14.7753 106.898 14.6528 107.162 14.4078C107.426 14.1628 107.558 13.7105 107.558 13.0509V9.63041H111.402V14.7753H117.084V18.0263H111.402V26.1111H117.084V29.3621H111.685ZM125.922 29.7013C124.301 29.7013 122.887 29.4563 121.681 28.9663C120.494 28.4763 119.599 27.8073 118.996 26.9592L121.342 24.7825C121.907 25.4044 122.567 25.8944 123.321 26.2525C124.093 26.5917 124.97 26.7613 125.95 26.7613C126.779 26.7613 127.429 26.6388 127.9 26.3938C128.371 26.13 128.607 25.7342 128.607 25.2065C128.607 24.7919 128.447 24.5092 128.126 24.3585C127.806 24.1889 127.363 24.0569 126.798 23.9627L124.452 23.5952C123.792 23.501 123.179 23.3596 122.614 23.1712C122.049 22.9639 121.559 22.6906 121.144 22.3514C120.729 22.0122 120.4 21.5976 120.155 21.1076C119.91 20.6176 119.787 20.0239 119.787 19.3266C119.787 17.8001 120.371 16.6034 121.54 15.7365C122.708 14.8696 124.348 14.4361 126.459 14.4361C127.891 14.4361 129.106 14.634 130.105 15.0298C131.123 15.4067 131.933 15.9532 132.536 16.6693L130.445 19.0439C130.011 18.5728 129.455 18.177 128.777 17.8566C128.098 17.5363 127.278 17.3761 126.317 17.3761C124.697 17.3761 123.886 17.8661 123.886 18.846C123.886 19.2795 124.046 19.581 124.367 19.7507C124.687 19.9014 125.13 20.0239 125.695 20.1181L128.013 20.4856C128.673 20.5799 129.286 20.7306 129.851 20.9379C130.416 21.1264 130.906 21.3902 131.321 21.7295C131.754 22.0687 132.094 22.4833 132.339 22.9733C132.584 23.4633 132.706 24.0569 132.706 24.7542C132.706 26.2808 132.112 27.4869 130.925 28.3727C129.757 29.2584 128.089 29.7013 125.922 29.7013Z" fill="white"/>
<path d="M140.706 8.44311H143.788L142.176 17.6588H136.805L140.706 8.44311ZM144.229 29.3621V14.7753H148.413V17.4326H148.582C148.752 17.018 148.959 16.6317 149.204 16.2736C149.449 15.9155 149.741 15.6046 150.08 15.3407C150.439 15.058 150.844 14.8413 151.296 14.6905C151.767 14.5209 152.295 14.4361 152.879 14.4361C153.576 14.4361 154.217 14.5586 154.801 14.8036C155.386 15.0298 155.885 15.3784 156.3 15.8496C156.714 16.3207 157.035 16.8955 157.261 17.574C157.506 18.2524 157.628 19.0345 157.628 19.9203V29.3621H153.444V20.4856C153.444 18.6011 152.625 17.6588 150.985 17.6588C150.665 17.6588 150.344 17.7059 150.024 17.8001C149.722 17.8755 149.449 18.0074 149.204 18.1959C148.959 18.3655 148.761 18.5822 148.61 18.846C148.479 19.1099 148.413 19.4208 148.413 19.7789V29.3621H144.229Z" fill="#F76902"/>
<path d="M163.608 9.63041H170.534C172.475 9.63041 173.955 10.1016 174.972 11.0438C176.009 11.9861 176.527 13.2677 176.527 14.8884C176.527 16.0192 176.245 16.9238 175.679 17.6022C175.133 18.2618 174.341 18.7424 173.305 19.0439V19.2135C174.53 19.5151 175.472 20.0428 176.131 20.7966C176.81 21.5504 177.149 22.5964 177.149 23.9344C177.149 25.5929 176.621 26.9121 175.566 27.8921C174.53 28.8721 173.069 29.3621 171.184 29.3621H163.608V9.63041ZM169.884 26.3938C170.902 26.3938 171.646 26.2242 172.117 25.885C172.588 25.5458 172.824 24.9239 172.824 24.0192V23.1995C172.824 22.2948 172.588 21.6729 172.117 21.3337C171.646 20.9945 170.902 20.8249 169.884 20.8249H167.736V26.3938H169.884ZM169.347 17.998C170.346 17.998 171.071 17.8378 171.524 17.5174C171.976 17.1782 172.202 16.5751 172.202 15.7082V14.8601C172.202 13.9932 171.976 13.3996 171.524 13.0792C171.071 12.7588 170.346 12.5986 169.347 12.5986H167.736V17.998H169.347ZM189.124 14.7753H193.393L186.523 31.7084C186.09 32.7826 185.515 33.6024 184.799 34.1678C184.083 34.7331 183.103 35.0158 181.859 35.0158H178.976V31.7649H182.481L183.385 29.2773L177.506 14.7753H182L184.12 20.9097L185.449 25.15H185.675L186.947 20.9097L189.124 14.7753ZM202.117 29.3621C200.609 29.3621 199.488 28.9663 198.753 28.1748C198.018 27.3832 197.65 26.375 197.65 25.15V18.0263H193.693V14.7753H196.265C196.887 14.7753 197.33 14.6528 197.594 14.4078C197.858 14.1628 197.989 13.7105 197.989 13.0509V9.63041H201.834V14.7753H207.516V18.0263H201.834V26.1111H207.516V29.3621H202.117ZM216.919 29.7013C214.469 29.7013 212.612 29.0228 211.35 27.6659C210.087 26.309 209.456 24.4621 209.456 22.1252C209.456 20.9379 209.616 19.8732 209.936 18.9309C210.275 17.9697 210.746 17.1593 211.35 16.4997C211.971 15.8213 212.716 15.3124 213.583 14.9732C214.469 14.6151 215.458 14.4361 216.551 14.4361C217.644 14.4361 218.624 14.6151 219.491 14.9732C220.358 15.3124 221.093 15.8024 221.696 16.4432C222.299 17.084 222.761 17.8661 223.081 18.7895C223.42 19.6941 223.59 20.7118 223.59 21.8425V23.0864H213.611V23.3408C213.611 24.2831 213.903 25.0463 214.487 25.6306C215.072 26.1959 215.929 26.4786 217.06 26.4786C217.927 26.4786 218.671 26.3184 219.293 25.9981C219.915 25.6588 220.452 25.216 220.904 24.6694L223.166 27.1288C222.601 27.8261 221.809 28.4292 220.791 28.938C219.774 29.4469 218.483 29.7013 216.919 29.7013ZM216.579 17.4326C215.675 17.4326 214.949 17.7153 214.403 18.2807C213.875 18.8272 213.611 19.5716 213.611 20.5139V20.7401H219.491V20.5139C219.491 19.5528 219.227 18.7989 218.699 18.2524C218.191 17.7059 217.484 17.4326 216.579 17.4326ZM231.89 29.7013C230.269 29.7013 228.856 29.4563 227.65 28.9663C226.462 28.4763 225.567 27.8073 224.964 26.9592L227.31 24.7825C227.876 25.4044 228.535 25.8944 229.289 26.2525C230.062 26.5917 230.938 26.7613 231.918 26.7613C232.747 26.7613 233.398 26.6388 233.869 26.3938C234.34 26.13 234.576 25.7342 234.576 25.2065C234.576 24.7919 234.415 24.5092 234.095 24.3585C233.775 24.1889 233.332 24.0569 232.766 23.9627L230.42 23.5952C229.76 23.501 229.148 23.3596 228.583 23.1712C228.017 22.9639 227.527 22.6906 227.113 22.3514C226.698 22.0122 226.368 21.5976 226.123 21.1076C225.878 20.6176 225.756 20.0239 225.756 19.3266C225.756 17.8001 226.34 16.6034 227.508 15.7365C228.677 14.8696 230.316 14.4361 232.427 14.4361C233.859 14.4361 235.075 14.634 236.074 15.0298C237.091 15.4067 237.902 15.9532 238.505 16.6693L236.413 19.0439C235.98 18.5728 235.424 18.177 234.745 17.8566C234.067 17.5363 233.247 17.3761 232.286 17.3761C230.665 17.3761 229.855 17.8661 229.855 18.846C229.855 19.2795 230.015 19.581 230.335 19.7507C230.656 19.9014 231.098 20.0239 231.664 20.1181L233.982 20.4856C234.641 20.5799 235.254 20.7306 235.819 20.9379C236.385 21.1264 236.875 21.3902 237.289 21.7295C237.723 22.0687 238.062 22.4833 238.307 22.9733C238.552 23.4633 238.674 24.0569 238.674 24.7542C238.674 26.2808 238.081 27.4869 236.894 28.3727C235.725 29.2584 234.057 29.7013 231.89 29.7013Z" fill="white"/>
<path opacity="0.9" d="M74.8787 44.4834V43.6047H74V42.726H75.7574V43.6047H78.3934V41.8474H74.8787V40.9687H74V39.2113H74.8787V38.3326H79.2721V39.2113H80.1507V40.09H78.3934V39.2113H75.7574V40.9687H79.2721V41.8474H80.1507V43.6047H79.2721V44.4834H74.8787ZM81.3106 44.4834V40.09H86.5827V40.9687H87.4613V44.4834H85.704V40.9687H84.8253V44.4834H83.0679V40.9687H82.1893V44.4834H81.3106ZM89.4999 44.4834V43.6047H88.6212V42.726H89.4999V41.8474H93.0146V40.9687H89.4999V40.09H93.8932V40.9687H94.7719V44.4834H89.4999ZM90.3785 43.6047H93.0146V42.726H90.3785V43.6047ZM98.5678 40.9687H99.4465V41.8474H98.5678V44.4834H96.8105V40.09H98.5678V40.9687ZM102.083 40.09V40.9687H99.4465V40.09H102.083ZM105.878 44.4834V40.9687H104.121V40.09H105.878V38.3326H107.636V40.09H109.393V40.9687H107.636V44.4834H105.878ZM120.5 44.4834V43.6047H119.621V42.726H118.742V41.8474H117.864V38.3326H119.621V40.9687H120.5V41.8474H121.378V40.9687H122.257V38.3326H124.014V41.8474H123.136V42.726H122.257V43.6047H121.378V44.4834H120.5ZM126.053 44.4834V43.6047H125.174V40.9687H126.053V40.09H130.446V40.9687H131.325V42.726H126.931V43.6047H130.446V44.4834H126.053ZM126.931 41.8474H129.568V40.9687H126.931V41.8474ZM132.485 44.4834V40.09H137.757V40.9687H138.635V44.4834H136.878V40.9687H134.242V44.4834H132.485ZM140.674 44.4834V43.6047H139.795V40.9687H140.674V40.09H144.189V38.3326H145.946V44.4834H140.674ZM141.553 43.6047H144.189V40.9687H141.553V43.6047ZM149.742 39.2113V38.3326H151.499V39.2113H149.742ZM147.985 44.4834V43.6047H149.742V40.9687H148.863V40.09H151.499V43.6047H153.257V44.4834H147.985ZM154.417 44.4834V40.09H159.689V40.9687H160.567V44.4834H158.81V40.9687H156.174V44.4834H154.417ZM162.606 45.3621V44.4834H166.12V43.6047H162.606V42.726H161.727V40.9687H162.606V40.09H167.878V44.4834H166.999V45.3621H162.606ZM163.484 42.726H166.12V40.9687H163.484V42.726ZM75.7574 54.4834V53.6047H74.8787V52.726H74V50.09H74.8787V49.2113H75.7574V48.3326H79.2721V49.2113H80.1507V50.09H78.3934V49.2113H76.636V50.09H75.7574V52.726H76.636V53.6047H78.3934V52.726H80.1507V53.6047H79.2721V54.4834H75.7574ZM82.1893 54.4834V53.6047H81.3106V52.726H82.1893V51.8474H85.704V50.9687H82.1893V50.09H86.5827V50.9687H87.4613V54.4834H82.1893ZM83.0679 53.6047H85.704V52.726H83.0679V53.6047ZM89.4999 54.4834V53.6047H88.6212V48.3326H90.3785V50.09H93.8932V50.9687H94.7719V53.6047H93.8932V54.4834H89.4999ZM90.3785 53.6047H93.0146V50.9687H90.3785V53.6047ZM98.5678 49.2113V48.3326H100.325V49.2113H98.5678ZM96.8105 54.4834V53.6047H98.5678V50.9687H97.6891V50.09H100.325V53.6047H102.083V54.4834H96.8105ZM103.242 54.4834V50.09H108.514V50.9687H109.393V54.4834H107.636V50.9687H105V54.4834H103.242ZM111.432 54.4834V53.6047H110.553V50.9687H111.432V50.09H115.825V50.9687H116.704V52.726H112.31V53.6047H115.825V54.4834H111.432ZM112.31 51.8474H114.946V50.9687H112.31V51.8474ZM120.5 54.4834V50.9687H118.742V50.09H120.5V48.3326H122.257V50.09H124.014V50.9687H122.257V54.4834H120.5ZM133.363 54.4834V53.6047H132.485V48.3326H134.242V50.09H137.757V50.9687H138.635V53.6047H137.757V54.4834H133.363ZM134.242 53.6047H136.878V50.9687H134.242V53.6047ZM140.674 55.3621V54.4834H144.189V53.6047H140.674V52.726H139.795V50.09H141.553V52.726H144.189V50.09H145.946V54.4834H145.067V55.3621H140.674ZM148.863 50.9687V49.2113H150.621V50.9687H148.863ZM148.863 53.6047V51.8474H150.621V53.6047H148.863Z" fill="white"/>
<path fill-rule="evenodd" clip-rule="evenodd" d="M190.172 43.5603V38.3621H174V58.5776H190.172V53.3793H186.707V55.1121H177.466V41.8276H186.707V43.5603H190.172Z" fill="white"/>
<path fill-rule="evenodd" clip-rule="evenodd" d="M183.241 45.9418H185.552V42.9827H178.621V49.6249H183.241V51.6465H180.931V51.1036H178.621V53.9568H185.552V47.3146H180.931L180.931 45.293H183.241L183.241 45.9418Z" fill="white"/>
<path fill-rule="evenodd" clip-rule="evenodd" d="M190.172 49.9138V52.2241H186.707V44.7155H190.172V47.0259H191.328V38.3621H194.793V58.5776H191.328V49.9138H190.172Z" fill="white"/>
<path fill-rule="evenodd" clip-rule="evenodd" d="M199.991 38.9396V38.3621H196.526V38.9396H195.948V42.9827H196.526V43.5603H199.991V42.9827H200.569V41.8276H199.414V42.4052H197.103V39.5172H199.414V40.0948H200.569V38.9396H199.991Z" fill="white"/>
<path fill-rule="evenodd" clip-rule="evenodd" d="M228.871 46.4482V45.8706H225.405V46.4482H224.828V50.4913H225.405V51.0689H228.871V50.4913H229.448V49.3361H228.293V49.9137H225.983V47.0258H228.293V47.6034H229.448V46.4482H228.871Z" fill="white"/>
<path fill-rule="evenodd" clip-rule="evenodd" d="M205.767 46.4482V45.8706H202.302V46.4482H201.724V50.4913H202.302V51.0689H205.767V50.4913H206.345V49.3361H205.19V49.9137H202.879V47.0258H205.19V47.6034H206.345V46.4482H205.767Z" fill="white"/>
<path fill-rule="evenodd" clip-rule="evenodd" d="M205.767 38.9396V38.3621H202.302V38.9396H201.724V42.9827H202.302V43.5603H205.767V42.9827H206.345V38.9396H205.767ZM202.879 39.5172H205.19V42.4052H202.879V39.5172Z" fill="white"/>
<path fill-rule="evenodd" clip-rule="evenodd" d="M205.767 53.9567V53.3792H202.302V53.9567H201.724V57.9998H202.302V58.5774H205.767V57.9998H206.345V53.9567H205.767ZM202.879 54.5343H205.19V57.4223H202.879V54.5343Z" fill="white"/>
<path fill-rule="evenodd" clip-rule="evenodd" d="M210.966 38.3621V38.9396H210.388V39.5172H209.233V38.9396H208.655V38.3621H207.5V43.5603H208.655V40.0948H209.233V40.6724H210.388V40.0948H210.966V43.5603H212.121V38.3621H210.966Z" fill="white"/>
<path fill-rule="evenodd" clip-rule="evenodd" d="M217.319 38.9396V38.3621H213.276V43.5603H214.431V41.8276H217.319V41.25H217.897V38.9396H217.319ZM214.431 39.5172H216.741V40.6724H214.431V39.5172Z" fill="white"/>
<path fill-rule="evenodd" clip-rule="evenodd" d="M222.517 38.3621V42.4052H220.207V38.3621H219.052V42.9827H219.629V43.5603H223.095V42.9827H223.672V38.3621H222.517Z" fill="white"/>
<path fill-rule="evenodd" clip-rule="evenodd" d="M210.966 53.3792V57.4223H208.655V53.3792H207.5V57.9998H208.078V58.5774H211.543V57.9998H212.121V53.3792H210.966Z" fill="white"/>
<path fill-rule="evenodd" clip-rule="evenodd" d="M224.828 38.3621V39.5172H226.56V43.5603H227.716V39.5172H229.448V38.3621H224.828Z" fill="white"/>
<path fill-rule="evenodd" clip-rule="evenodd" d="M207.5 45.8706V47.0258H209.233V49.9137H207.5V51.0689H212.121V49.9137H210.388V47.0258H212.121V45.8706H207.5Z" fill="white"/>
<path fill-rule="evenodd" clip-rule="evenodd" d="M230.603 38.3621V43.5603H235.224V42.4052H231.759V41.8276H234.069V40.6724H231.759V39.5172H235.224V38.3621H230.603Z" fill="white"/>
<path fill-rule="evenodd" clip-rule="evenodd" d="M230.603 45.8706V51.0689H235.224V49.9137H231.759V49.3361H234.069V48.181H231.759V47.0258H235.224V45.8706H230.603Z" fill="white"/>
<path fill-rule="evenodd" clip-rule="evenodd" d="M213.276 45.8706V51.0689H217.897V49.9137H214.431V49.3361H216.741V48.181H214.431V47.0258H217.897V45.8706H213.276Z" fill="white"/>
<path fill-rule="evenodd" clip-rule="evenodd" d="M219.052 53.3792V58.5774H223.672V57.4223H220.207V56.8447H222.517V55.6895H220.207V54.5343H223.672V53.3792H219.052Z" fill="white"/>
<path fill-rule="evenodd" clip-rule="evenodd" d="M240.422 38.9396V38.3621H236.379V43.5603H237.534V41.8276H239.845V43.5603H241V41.8276H240.422V41.25H241V38.9396H240.422ZM237.534 39.5172H239.845V40.6724H237.534V39.5172Z" fill="white"/>
<path fill-rule="evenodd" clip-rule="evenodd" d="M222.517 45.8706V48.7585H221.94V48.181H221.362V47.6034H220.784V47.0258H220.207V45.8706H219.052V51.0689H220.207V48.181H220.784V48.7585H221.362V49.3361H221.94V49.9137H222.517V51.0689H223.672V45.8706H222.517Z" fill="white"/>
<path fill-rule="evenodd" clip-rule="evenodd" d="M200.569 47.0258V45.8706H196.526V46.4482H195.948V48.181H196.526V48.7585H198.259V49.3361H199.414V49.9137H195.948V51.0689H199.991V50.4913H200.569V48.7585H199.991V48.181H198.259V47.6034H197.103V47.0258H200.569Z" fill="white"/>
<path fill-rule="evenodd" clip-rule="evenodd" d="M217.897 54.5343V53.3792H213.853V53.9567H213.276V55.6895H213.853V56.2671H215.586V56.8447H216.741V57.4223H213.276V58.5774H217.319V57.9998H217.897V56.2671H217.319V55.6895H215.586V55.1119H214.431V54.5343H217.897Z" fill="white"/>
<path fill-rule="evenodd" clip-rule="evenodd" d="M199.414 53.3792V55.6895H197.103V53.3792H195.948V58.5774H197.103V56.8447H199.414V58.5774H200.569V53.3792H199.414Z" fill="white"/>
</svg>
