<svg width="34" height="57" viewBox="0 0 34 57" fill="none" xmlns="http://www.w3.org/2000/svg">
<path fill-rule="evenodd" clip-rule="evenodd" d="M34 0H0V16.83L11.3333 28.05L0 39.27V56.1H34V39.27L22.6667 28.05L34 16.83V0ZM5.66667 50.49V40.6725L17 29.4525L28.3333 40.6725V50.49H5.66667ZM28.3333 15.4275L17 26.6475L5.66667 15.4275V5.61H28.3333V15.4275ZM22.6667 11.22H11.3333V13.3237L17 18.9337L22.6667 13.3237V11.22ZM17.1028 45.964H15.3445V47.7223H17.1028V45.964ZM19.1542 41.6677C21.0181 39.294 19.6524 36.1289 16.5167 36C15.584 36 14.6895 36.3705 14.03 37.03C13.3705 37.6895 13 38.584 13 39.5167H14.7583C14.7583 39.0503 14.9436 38.6031 15.2734 38.2734C15.6031 37.9436 16.0503 37.7583 16.5167 37.7583C18.4626 37.9107 18.8143 39.7687 17.3959 41.0816C17.2404 41.2052 17.0545 41.3246 16.8608 41.449C16.4482 41.7139 16.0004 42.0015 15.7372 42.4004C15.3445 42.9865 15.3445 43.8129 15.3445 44.7917H17.1028C17.1028 44.2056 17.1028 43.6195 17.4955 43.133C17.6847 42.8923 17.9692 42.6767 18.2674 42.4508C18.579 42.2147 18.9056 41.9672 19.1542 41.6677Z" fill="white"/>
</svg>
